<?xml version="1.0" encoding="UTF-8"?>
<svg id="Layer_1" xmlns="http://www.w3.org/2000/svg" version="1.1" viewBox="0 0 798.3 392.1">
  <!-- Generator: Adobe Illustrator 29.3.1, SVG Export Plug-In . SVG Version: 2.1.0 Build 151)  -->
  <defs>
    <style>
      .st0 {
        fill: #2e3192;
      }

      .st1 {
        fill: #13629a;
      }

      .st2 {
        fill: #31a1d4;
      }

      .st3 {
        fill: #116197;
      }

      .st4 {
        fill: none;
        stroke: #116197;
        stroke-miterlimit: 10;
      }
    </style>
  </defs>
  <polygon class="st2" points="127.3 156.6 153.3 168.8 152.3 253.9 127.3 266.1 127.3 156.6"/>
  <polygon class="st2" points="91.6 156.6 116.8 141.9 117.1 280.2 152.3 298.8 152.3 336.6 91.6 302.6 91.6 156.6"/>
  <path class="st3" d="M157.2,345.7l-70.2-39.3V122.6l72.2,38.4-2,184.6ZM93,302.8l58.3,32.7,1.9-170.9-60.2-32v170.2Z"/>
  <path class="st3" d="M222.3,339.3l-106.6-56.5s0,0,0,0l-1.6-.8v-1.7s0,0,0-.1l.3-135.5-45.8,25.1c-1.5.8-3.3.3-4.1-1.2-.8-1.5-.3-3.3,1.2-4.1l48.7-26.7v-46.8c0,0,83.2-46.3,83.2-46.3v47.6c0,0,26.7-14.7,26.7-14.7l-2,261.8ZM123.5,280.2l92.8,49.2,1.9-241.7-20.8,11.4-.3,142.6-73.6,38.5ZM120.4,141.3l-.3,133.9,71.1-37.1.3-135.7-71.1,38.9ZM120.5,94.5v40c0,0,71-38.9,71-38.9v-40.7c0,0-71,39.6-71,39.6Z"/>
  <path class="st1" d="M253.1,153.4c.1-3.1.2-6.4.2-9.9,0-3.5,0-7.6,0-12.3s0-6,0-8.7c0-2.7,0-5.1,0-7.3,0-2.2,0-4.3-.1-6.2h19.5c2.3,0,4.3.2,6,.6s3.1,1.1,4.3,2c1.2.9,2,2.1,2.6,3.6.5,1.4.8,3.2.8,5.2s-.2,2.9-.5,4.1c-.3,1.2-.8,2.2-1.4,3s-1.4,1.5-2.4,2.1c-1,.6-2.2.9-3.8,1.1-1.5.2-3.3.4-5.2.5l4.3-1.1v1.8l-4.3-1c1.8,0,3.5.2,4.9.3,1.4.1,2.6.4,3.6.8,1.2.6,2.2,1.2,3,2.1.8.8,1.4,1.9,1.8,3.1.4,1.2.5,2.6.5,4.3s-.3,3.8-.9,5.3c-.6,1.5-1.4,2.8-2.5,3.7-1.1.9-2.5,1.7-4.3,2.2-1.7.5-3.7.8-6,.8h-20.1,0ZM259.2,127.9c2.1,0,4.1,0,6.1.1,1.9,0,3.7,0,5.4,0,2,0,3.6-.4,4.8-.8s2.1-1.2,2.6-2.2c.5-1,.8-2.2.8-3.7s-.3-2.6-.8-3.5c-.5-.9-1.4-1.5-2.6-1.8-1.2-.3-2.7-.5-4.6-.5s-3.6,0-5.6,0c-2,0-4.1,0-6.3.2l2-3.8c0,.9,0,2.1-.1,3.5s0,2.9,0,4.5v16.1c0,1.8,0,3.6,0,5.3,0,1.7,0,3.4,0,4.9s0,2.8.1,4l-1.6-4.2c2.3,0,4.4.1,6.3.1,1.9,0,3.7,0,5.2,0s2.9-.1,3.9-.3,1.9-.6,2.6-1,1.1-1.1,1.4-1.9.4-1.9.4-3.2-.3-2.6-.9-3.5c-.6-.9-1.5-1.5-2.7-1.9s-2.9-.6-4.9-.6h-3.6c-1.3,0-2.6,0-3.9,0-1.3,0-2.7,0-4.2,0l.2-6h0Z"/>
  <path class="st1" d="M301.7,117.7c0,1.8-.1,3.8-.1,5.9,0,2.2,0,4.5,0,7.1v8.6c0,1.9.2,3.4.7,4.6s1.2,2.1,2.3,2.6c1,.6,2.4.9,4,.9s2.4-.2,3.5-.5c1.1-.4,2-.9,2.8-1.8s1.5-1.9,1.9-3.1c.5-1.2.7-2.7.7-4.3v-6.5c0-1.8,0-3.4,0-4.8,0-1.4,0-2.6,0-3.6v-5.1h7.4c0,1.7,0,3.3,0,4.9,0,1.6,0,3.4,0,5.4,0,2,0,4.3,0,7,0,3.9,0,7.4,0,10.4s0,5.6.1,8h-7.5c0-1.1,0-2.1.1-2.9,0-.9,0-1.8,0-2.7s0-2.1.1-3.4l.2,3-1.1-.2,1.4-2.6c-.5,2.2-1.2,3.9-2.3,5.3s-2.5,2.4-4.1,3.1c-1.6.7-3.6,1-5.7,1s-4.5-.5-6.2-1.5c-1.7-1-3-2.4-3.8-4.3s-1.3-4.3-1.3-7.2v-3.7c0-1.1,0-2.1,0-2.9,0-.9,0-1.7,0-2.5v-2.6c0-2.1,0-4.1,0-6,0-1.9,0-3.8-.1-5.7h7.5,0Z"/>
  <path class="st1" d="M341.7,112.4c-.1.4-.4.7-.7,1s-.8.5-1.4.7c-.6.2-1.4.2-2.4.2s-1.8,0-2.4-.2c-.6-.2-1.1-.4-1.4-.7-.3-.3-.6-.6-.7-1s-.2-.8-.2-1.2,0-.8.2-1.2c.2-.4.4-.7.7-.9.3-.2.8-.4,1.4-.6.6-.2,1.4-.2,2.4-.2s1.7,0,2.3.2c.6.2,1.1.3,1.4.6.4.2.6.5.7.9.1.4.2.8.2,1.2s0,.8-.2,1.2h0ZM333.6,153.4c0-1.5,0-2.9,0-4.4s0-2.9,0-4.4v-16.1c0-1.9,0-3.8,0-5.6s0-3.5,0-5.4h7.3c0,1.4,0,2.7,0,4.1,0,1.3,0,2.7,0,4,0,1.4,0,2.8,0,4.3v10.4c0,1.6,0,3.1,0,4.6,0,1.4,0,2.8,0,4.2s0,2.8,0,4.2h-7.3Z"/>
  <path class="st1" d="M349.7,153.4c0-1.7,0-3.5,0-5.3s0-3.7,0-5.6c0-1.9,0-3.8,0-5.7v-18.2c0-1.8,0-3.7,0-5.5s0-3.7-.1-5.6h7.5c0,1.9-.1,3.7-.1,5.4,0,1.8,0,3.6,0,5.4v24.4c0,1.8,0,3.6,0,5.3,0,1.8,0,3.5,0,5.2h-7.4Z"/>
  <path class="st1" d="M395.3,107.6c0,1.7,0,3.4,0,5,0,1.7,0,3.4,0,5.3,0,1.9,0,4,0,6.3v7.9c0,3,0,5.8,0,8.3,0,2.5,0,4.8,0,6.9s0,4.2.1,6.1h-7.5c0-.7,0-1.4,0-2,0-.7,0-1.4,0-2.2s0-1.9,0-2.9c0-1,.1-2,.2-3l.4,2.8-1.5-.2,1.2-2.6c-.2,1.1-.5,2.2-.9,3.2s-1,2-1.6,2.9-1.4,1.7-2.3,2.4c-.9.7-1.9,1.2-3,1.6-1.1.4-2.3.6-3.7.6s-3.7-.4-5.3-1.1-3-1.8-4.1-3.3c-1.1-1.5-2-3.3-2.6-5.6-.6-2.3-.9-5-.9-8.2s.3-5.8,1-8.2,1.6-4.3,2.9-5.9c1.2-1.6,2.7-2.7,4.4-3.5,1.7-.8,3.5-1.2,5.4-1.2s3.5.3,5,.8c1.4.5,2.7,1.3,3.7,2.3s1.9,2.3,2.5,3.8l-1.3-1.6,1.1-.3-.4,2.4c0-1.1-.1-2-.1-2.9,0-.9,0-1.8,0-2.6,0-.8,0-1.8,0-2.8v-4.4c0-1.3,0-2.6,0-4.1h7.5ZM371.4,141.2c.4,1.5,1,2.7,1.7,3.6.7.9,1.6,1.6,2.6,2.1,1,.4,2.2.7,3.5.7s2.3-.2,3.4-.6,2-1.1,2.8-1.9,1.4-1.8,1.9-3.1.7-2.6.7-4.1v-12.8l.8,2c-.8-.7-1.6-1.3-2.5-1.8-.9-.5-2-.9-3-1.1s-2.3-.3-3.5-.3-2.8.2-3.9.7-2,1.2-2.8,2.2c-.8,1-1.3,2.2-1.7,3.8-.4,1.5-.6,3.3-.6,5.4s.2,3.9.6,5.4h0Z"/>
  <path class="st1" d="M412.4,112.4c-.1.4-.4.7-.7,1-.3.3-.8.5-1.4.7-.6.2-1.4.2-2.4.2s-1.8,0-2.4-.2c-.6-.2-1.1-.4-1.4-.7s-.6-.6-.7-1-.2-.8-.2-1.2,0-.8.2-1.2c.2-.4.4-.7.7-.9.3-.2.8-.4,1.4-.6.6-.2,1.4-.2,2.4-.2s1.7,0,2.3.2c.6.2,1.1.3,1.4.6.4.2.6.5.7.9.1.4.2.8.2,1.2s0,.8-.2,1.2ZM404.2,153.4c0-1.5,0-2.9,0-4.4s0-2.9,0-4.4v-16.1c0-1.9,0-3.8,0-5.6,0-1.8,0-3.5,0-5.4h7.3c0,1.4,0,2.7,0,4.1,0,1.3,0,2.7,0,4,0,1.4,0,2.8,0,4.3v10.4c0,1.6,0,3.1,0,4.6,0,1.4,0,2.8,0,4.2s0,2.8,0,4.2h-7.3Z"/>
  <path class="st1" d="M443.4,153.4c0-1.8,0-3.7,0-5.8,0-2.1,0-4.4,0-7s0-5.3,0-8.2-.2-3.5-.7-4.7c-.5-1.2-1.2-2.1-2.2-2.7-1-.6-2.4-.9-4-.9s-2.4.2-3.5.6c-1.1.4-2,1-2.8,1.8s-1.5,1.8-1.9,3c-.5,1.2-.7,2.7-.7,4.4v6.3c0,1.8,0,3.4,0,4.7,0,1.3,0,2.6,0,3.6s0,2,0,2.8c0,.8,0,1.6,0,2.3h-7.5c0-1.6.1-3.2.1-4.9,0-1.7,0-3.6,0-5.5v-6.9c0-3.9,0-7.3,0-10.2,0-3,0-5.7-.1-8.1h7.5c0,1,0,2,0,2.9,0,.9,0,1.8-.1,2.8,0,1-.1,2-.1,3.2l-.2-2.9,1.1.2-1.4,2.6c.5-2.2,1.3-3.9,2.4-5.3,1.1-1.4,2.5-2.4,4.2-3.1,1.7-.7,3.6-1,5.8-1s4.5.5,6.2,1.4,2.9,2.4,3.8,4.4c.9,2,1.3,4.5,1.3,7.6s0,2.6,0,3.6c0,1,0,1.9,0,2.8s0,1.6,0,2.4c0,.8,0,1.6,0,2.4,0,2.2,0,4.2,0,6.1,0,1.9,0,3.8.1,5.6h-7.4Z"/>
  <path class="st1" d="M467.5,140c-.5.5-.8.9-1.1,1.4s-.5.9-.6,1.4-.2.9-.2,1.3c0,.6.2,1.1.6,1.4.4.3,1,.5,1.9.5,1.7,0,3.2,0,4.8-.1,1.5-.1,3-.2,4.3-.3,1.3-.1,2.6-.1,3.7-.1,2,0,3.7.3,5,.8s2.4,1.4,3,2.5,1,2.6,1,4.5-.1,1.8-.3,2.7-.6,1.6-1.1,2.3-1.2,1.3-2.1,1.9c-.9.5-2,1-3.2,1.4-1.2.4-2.7.7-4.4.9s-3.7.3-6,.3-5.2-.1-7.1-.3-3.5-.5-4.7-.9c-1.2-.4-2.1-.8-2.8-1.3s-1-1.1-1.2-1.7-.3-1.3-.3-2,.2-1.6.5-2.2.8-1.2,1.4-1.7c.6-.5,1.4-.9,2.3-1.3.9-.3,2-.6,3.2-.8l2.2-.2c-.9.7-1.7,1.3-2.2,1.8-.5.6-.8,1.1-.8,1.8s0,.9.3,1.2c.2.4.5.7.9.9s1,.5,1.7.7c.7.2,1.6.3,2.8.4s2.4.1,4,.1,3.5,0,4.8-.3c1.3-.2,2.3-.4,3.2-.8.8-.3,1.4-.7,1.8-1.2s.6-1.1.6-1.7-.1-1.1-.4-1.4c-.2-.3-.6-.6-1.2-.7s-1.4-.2-2.4-.2-2,0-3,0-2.2,0-3.4.1-2.2.1-3.2.1-2,0-2.8,0c-1.5,0-2.8-.1-3.8-.3-1-.2-1.8-.5-2.4-1-.6-.4-1-1-1.3-1.6s-.4-1.3-.4-1.9c0-1.2.3-2.2.9-3.1s1.4-1.6,2.4-2.3,2.1-1.1,3.2-1.5l2,.4h0ZM459.1,124.7c.6-1.5,1.5-2.8,2.7-3.8,1.2-1.1,2.7-1.8,4.5-2.3,1.8-.5,3.9-.8,6.2-.8h1.6c.8,0,1.9,0,3.1,0,1.2,0,2.6,0,4,0s2.9,0,4.5,0c1.5,0,3,0,4.4,0v6.3c-.5,0-1.2,0-2,0-.8,0-1.6,0-2.5-.1-.9,0-1.8-.1-2.8-.2-1,0-1.9,0-2.8-.2-.9,0-1.7-.1-2.5-.2-.8,0-1.5,0-2.1-.1l.6-.3c1.7.2,3.1.4,4.4.7,1.3.3,2.3.7,3.2,1.2s1.5,1,2.1,1.7c.5.6.9,1.3,1.2,2.1.3.8.4,1.8.4,2.9s-.1,1.9-.4,2.8-.6,1.6-1.1,2.4-1.1,1.4-1.9,2-1.8,1.1-2.9,1.5c-1.1.4-2.4.7-3.7.9-1.4.2-2.9.3-4.7.3-2.6,0-4.7-.3-6.5-.8-1.8-.5-3.3-1.3-4.4-2.2-1.1-1-2-2.2-2.5-3.6-.5-1.4-.8-3.1-.8-4.9s.3-3.6.9-5.1h0ZM462.2,150.3h1.5v1.1h-1.5v-1.1ZM464.3,138.7h1.5v1.9s-1.5,0-1.5,0v-1.9h0ZM480.1,126.5c-.6-.9-1.5-1.7-2.7-2.2s-2.8-.8-4.6-.8-3.5.3-4.7.9c-1.2.6-2,1.3-2.6,2.2-.5.9-.8,2-.8,3.2s.3,2.3.8,3.1,1.4,1.6,2.6,2.1c1.2.5,2.8.8,4.7.8s3.5-.2,4.7-.7c1.2-.5,2.1-1.2,2.7-2.1s.9-2,.9-3.2-.3-2.3-.9-3.3h0ZM478.8,123h2.9v1.5h-2.9v-1.5Z"/>
  <path class="st1" d="M541.8,126.6v-.7c0-2.4-.4-4.3-1.1-5.8-.7-1.4-1.8-2.5-3.3-3.1s-3.3-.9-5.3-.9-2.6.2-3.8.5c-1.1.3-2.1.8-3,1.6s-1.6,1.7-2.3,2.8c-.6,1.1-1.1,2.5-1.4,4.2s-.5,3.5-.5,5.7.2,4.2.5,5.9c.3,1.7.8,3.2,1.5,4.4s1.4,2.3,2.3,3.1c.9.8,1.9,1.4,3.1,1.7s2.5.5,3.8.5c2.2,0,4.1-.4,5.5-1.1,1.4-.8,2.5-1.9,3.1-3.4.7-1.5,1-3.2,1-5.3v-1h7.6c0,.1,0,.3,0,.5s0,.4,0,.6c0,.2,0,.4,0,.6,0,2.7-.3,5.1-1,7.2s-1.8,3.9-3.2,5.4c-1.4,1.5-3.2,2.6-5.4,3.4s-4.7,1.1-7.5,1.1-4.8-.3-6.8-.9c-2-.6-3.8-1.6-5.3-2.8s-2.8-2.8-3.8-4.7c-1-1.9-1.8-4-2.3-6.5-.5-2.4-.8-5.2-.8-8.2s.4-7.3,1.3-10.1c.9-2.8,2.1-5.2,3.8-7.1,1.6-1.8,3.6-3.2,6-4.2s5-1.4,8-1.4,4.2.2,6,.6,3.4,1.1,4.7,1.9c1.4.9,2.5,1.9,3.4,3.3.9,1.3,1.6,2.8,2.1,4.5s.8,3.7.8,5.8,0,.6,0,.8c0,.2,0,.5,0,.8v.9c-.7,0-1.3,0-1.9,0h-3.2c-.4,0-.8,0-1.2,0s-.8,0-1.2,0c0-.1,0-.2,0-.3h0Z"/>
  <path class="st1" d="M557,153.4c0-1.7,0-3.5,0-5.3s0-3.7,0-5.6c0-1.9,0-3.8,0-5.7v-18.2c0-1.8,0-3.7,0-5.5,0-1.8,0-3.7,0-5.6h7.5c0,1.9-.1,3.7-.1,5.4,0,1.8,0,3.6,0,5.4v24.4c0,1.8,0,3.6,0,5.3,0,1.8,0,3.5,0,5.2h-7.4Z"/>
  <path class="st1" d="M595.4,153.4c-.3,0-.6,0-.9,0s-.4-.2-.5-.3c-.1-.1-.2-.3-.3-.6,0-.3,0-.6,0-1.1s0-1.3,0-2.1c0-.8,0-1.6,0-2.4s0-1.6,0-2.3l.6,2.5h-1.3c0-.1.9-2.7.9-2.7-.2,2.2-.9,4-1.9,5.4s-2.4,2.5-4,3.2c-1.7.7-3.7,1.1-6,1.1s-3.2-.2-4.5-.5c-1.3-.4-2.5-.9-3.3-1.8-.9-.8-1.6-1.8-2-3.1s-.7-2.7-.7-4.6.5-4.4,1.5-5.9c1-1.5,2.4-2.6,4.4-3.4,2-.7,4.4-1.1,7.4-1.1s3.8,0,5.5.2c1.6.2,3,.4,4,.6v3.9c-1.3-.2-2.6-.4-4.1-.5s-2.9-.1-4.4-.1-3.1.2-4.1.5c-1,.4-1.8.9-2.3,1.7s-.8,1.8-.8,3.1.2,2,.7,2.7c.5.7,1.1,1.3,2,1.7s2.1.6,3.6.6,2.6-.2,3.7-.6c1.1-.4,2-1,2.8-1.8s1.3-1.7,1.7-2.8c.4-1.1.6-2.3.6-3.6v-3c0-1,0-2,0-3s0-1.9,0-2.7-.1-2.1-.4-2.9-.7-1.6-1.2-2.1c-.6-.6-1.3-1-2.2-1.3-.9-.3-2-.4-3.4-.4s-2.5.2-3.4.4c-.9.3-1.7.7-2.2,1.3-.5.6-.9,1.3-1.1,2.2-.2.9-.3,2-.2,3.3-.5,0-1,0-1.5,0h-3c-.5,0-.9,0-1.3,0-.5,0-.8,0-1.1.1,0-2.4.1-4.6.7-6.4.5-1.8,1.4-3.3,2.6-4.5s2.7-2.1,4.5-2.6c1.8-.6,3.9-.8,6.2-.8s4.9.3,6.7.9c1.8.6,3.3,1.4,4.5,2.6,1.1,1.1,2,2.5,2.5,4.2.5,1.7.8,3.6.8,5.8s0,2.9,0,4.2c0,1.3,0,2.6,0,3.9,0,1.3,0,2.7,0,4.1s0,2.1,0,3.2c0,1.1,0,2.1.1,3.1s.1,1.8.2,2.6.2,1.4.3,1.8h-6.1Z"/>
  <path class="st1" d="M609.5,153.4c0-2.5,0-5.2,0-8.1s0-6.2,0-10,0-7,0-9.7c0-2.7,0-5.4,0-7.9h6.4c0,1.1,0,2.2,0,3.5,0,1.3,0,2.6-.1,4.1s0,3.1-.2,4.8l-.3-4.9,1.1.2-1,4.6c.2-2.3.7-4.3,1.2-5.9s1.3-2.9,2.2-4,2-1.8,3.1-2.3,2.5-.7,4.1-.7,1.9,0,2.8.3c.9.2,1.6.4,2.3.7,0,.4-.2.9-.2,1.6,0,.7-.2,1.4-.3,2.1,0,.7-.2,1.4-.2,2.2,0,.7,0,1.3,0,1.9-.7-.4-1.5-.6-2.4-.7-.8-.1-1.8-.2-2.7-.2s-2.5.2-3.5.6c-1,.4-1.8,1-2.5,1.9s-1.2,2-1.5,3.4-.5,3.2-.5,5.3v4.6c0,1.6,0,3.1,0,4.6s0,3,0,4.4c0,1.4,0,2.6,0,3.6h-7.8Z"/>
  <path class="st1" d="M644.6,112.4c-.1.4-.3.7-.7,1-.3.3-.8.5-1.4.7-.6.2-1.4.2-2.4.2s-1.8,0-2.4-.2c-.6-.2-1.1-.4-1.4-.7s-.6-.6-.7-1-.2-.8-.2-1.2,0-.8.2-1.2c.2-.4.4-.7.7-.9.3-.2.8-.4,1.4-.6.6-.2,1.4-.2,2.4-.2s1.7,0,2.3.2c.6.2,1.1.3,1.4.6.3.2.6.5.7.9s.2.8.2,1.2,0,.8-.2,1.2h0ZM636.5,153.4c0-1.5,0-2.9,0-4.4s0-2.9,0-4.4v-16.1c0-1.9,0-3.8,0-5.6,0-1.8,0-3.5,0-5.4h7.3c0,1.4,0,2.7,0,4.1,0,1.3,0,2.7,0,4,0,1.4,0,2.8,0,4.3v10.4c0,1.6,0,3.1,0,4.6,0,1.4,0,2.8,0,4.2,0,1.4,0,2.8,0,4.2h-7.3Z"/>
  <path class="st1" d="M653.1,117.8c1.2,0,2.5,0,3.8,0s2.7,0,4,0c1.4,0,2.8,0,4.2,0s2.8,0,4.2,0c1.4,0,2.8,0,4.1,0,0,.7,0,1.5,0,2.3,0,.8,0,1.7,0,2.5v2.5c-.8,0-1.7-.1-2.6-.1s-1.9,0-2.9,0-2.1,0-3.1,0-2.1,0-3.2,0h-3.2c-1,0-2.1,0-3.1,0-1,0-2,0-2.9,0h-2.6v-6.9c1,0,2.2,0,3.4,0h0ZM655.8,110.3h4.3c.4,0,.8,0,1.2-.1,0,2.1-.1,4.3-.1,6.7s0,4.7,0,7.2c0,2.5,0,5.2,0,8,0,2.8,0,5.7,0,8.7s.2,2.4.6,3.3,1,1.5,1.8,1.9c.8.4,2,.6,3.5.6s2.3-.1,3.4-.4c1.1-.3,2.1-.6,3-1,0,.5,0,1,.2,1.5,0,.5.1,1,.2,1.5,0,.5.1,1,.2,1.5s.1,1,.2,1.5.1.9.2,1.3c-.9.2-1.8.5-2.6.7-.8.2-1.7.4-2.6.5-.9.1-1.9.1-3,.1-2.2,0-4.1-.3-5.6-.9-1.5-.6-2.8-1.4-3.7-2.5-1-1.1-1.7-2.4-2.1-3.9-.4-1.5-.6-3.1-.6-4.9v-4.4c0-1.6,0-3.3,0-5.1,0-1.8,0-3.7,0-5.6s0-3.8,0-5.7c0-1.9,0-3.8,0-5.6v-5.1c.5,0,1.1.1,1.8.1h0Z"/>
  <path class="st1" d="M684.4,117.7c.1.6.4,1.3.7,2.3.3,1,.7,2.1,1.1,3.3.4,1.2.8,2.5,1.3,3.8.4,1.4.9,2.7,1.3,4.1.4,1.4.8,2.7,1.2,3.9.9,2.9,1.6,5.4,2.1,7.6s.9,4,1.2,5.4l-1.6-2.6h2.3l-1.6,2.5c.2-.9.5-2,.8-3.2.3-1.2.8-2.6,1.2-4.2.5-1.6,1-3.4,1.6-5.4.5-1.6,1-3.3,1.5-4.9.5-1.7,1-3.3,1.5-4.9.5-1.6,1-3,1.4-4.3s.8-2.4,1-3.3h7.6c-.5,1.7-1.2,3.7-2,6-.8,2.3-1.6,4.8-2.5,7.3-.9,2.6-1.7,5.1-2.6,7.5s-1.6,4.7-2.3,6.7-1.3,3.6-1.7,4.8c-.9,2.2-1.7,4.2-2.6,5.9s-1.8,3.1-2.9,4.2c-1.1,1.1-2.3,1.9-3.7,2.5-1.4.6-3.1.8-5,.8s-2.2,0-3.1-.2-1.8-.4-2.5-.6c-.8-.3-1.6-.5-2.4-.9,0-.3.2-.7.3-1.1.1-.4.2-1,.3-1.6,0-.6.2-1.2.3-1.9.1-.6.3-1.2.4-1.7,0-.5.2-.9.2-1.1.5.3,1,.5,1.6.7s1,.4,1.6.6c.5.2,1.1.3,1.7.3.6,0,1.2,0,1.9,0s1.6-.1,2.3-.3c.7-.2,1.3-.5,1.8-1,.5-.5,1.1-1.1,1.5-1.9s.9-1.7,1.4-2.8c0-.3.1-.5.2-.8s.1-.5.2-.7l1.2,1.3h-3c-.4,0-.8,0-1.2,0s-.6,0-.8,0c-.4-.9-.8-2.1-1.4-3.6s-1.2-3.3-1.9-5.2c-.7-1.9-1.4-4-2.1-6.1s-1.5-4.2-2.2-6.3c-.8-2.1-1.5-4.1-2.2-5.9-.7-1.8-1.3-3.5-1.8-4.9h8.3Z"/>
  <path class="st1" d="M295.7,193.2c-.4,1.3-.8,3-1.3,5-.5,2-1.1,4.1-1.7,6.5-.6,2.4-1.2,4.8-1.8,7.1-.6,2.4-1.2,4.7-1.8,6.9-.5,2.2-1,4.2-1.5,6-.4,1.8-.8,3.1-1,4.1-.5,0-1.1,0-1.7,0h-4.2c-.6,0-1.1,0-1.6,0-.5,0-.8,0-1.1,0-.2-.9-.5-2.1-.8-3.6-.4-1.5-.7-3.2-1.1-5-.4-1.9-.8-3.8-1.2-5.8-.4-2-.8-4-1.2-6-.4-1.4-.6-2.7-.9-3.9s-.5-2.3-.7-3.4c-.2-1.1-.4-2-.5-2.7l1.4,2.8h-2l1.5-2.8c-.1.8-.3,1.7-.5,2.8-.2,1.1-.5,2.2-.8,3.5-.3,1.2-.6,2.5-.9,3.8-.4,1.9-.9,3.9-1.3,5.9-.5,2-.9,3.9-1.3,5.7s-.8,3.5-1.2,5.1-.7,2.8-.9,3.7c-.3,0-.7,0-1.2,0-.5,0-1,0-1.5,0h-3.9c-.6,0-1.1,0-1.5,0-.3-1.1-.7-2.6-1.1-4.4-.4-1.8-.9-3.8-1.5-6-.6-2.2-1.1-4.5-1.7-7-.6-2.4-1.1-4.8-1.7-7.1-.5-2.3-1.1-4.4-1.6-6.3-.5-1.9-1-3.5-1.4-4.8h7.8c.1.5.3,1.3.5,2.5.2,1.1.5,2.4.8,3.9.3,1.5.6,3.1,1,4.7.4,1.7.7,3.4,1.1,5.1.4,1.7.7,3.3,1,4.8.3,1.3.5,2.5.8,3.5.2,1,.4,1.9.6,2.8.2.8.3,1.5.4,2.2l-.9-1.4h1.7l-1.1,1.4c.2-.9.4-2.1.7-3.5s.7-3.1,1.1-4.9c.5-1.9.9-3.8,1.4-5.9s.9-4.1,1.3-6,.8-3.7,1.1-5.4.6-2.9.8-3.7h1.7c.3,0,.6,0,1,0s.7,0,1,0h1.8c.4,0,.7,0,1.1,0,.4,0,.7,0,1.1,0h.9c.1.8.3,2,.6,3.6s.7,3.4,1.1,5.3.8,4,1.3,6.2.9,4.2,1.3,6.1c.5,1.9.8,3.5,1.1,4.9.3,1.4.5,2.5.7,3.4l-.9-1.4h1.5l-.9,1.4c.1-.6.2-1.3.4-2.1s.4-1.8.6-2.8c.2-1.1.5-2.2.8-3.4.3-1.5.6-3.1,1-4.8.4-1.7.7-3.3,1.1-4.9.4-1.6.7-3.2,1-4.7.3-1.5.6-2.8.9-4,.2-1.1.4-2.1.5-2.7h6.7Z"/>
  <path class="st1" d="M312.6,187.8c-.1.4-.4.7-.7,1s-.8.5-1.4.7c-.6.2-1.4.2-2.4.2s-1.8,0-2.4-.2c-.6-.2-1.1-.4-1.4-.7-.3-.3-.6-.6-.7-1s-.2-.8-.2-1.2,0-.8.2-1.2c.2-.4.4-.7.7-.9.3-.2.8-.4,1.4-.6.6-.2,1.4-.2,2.4-.2s1.7,0,2.3.2c.6.2,1.1.4,1.4.6.4.2.6.5.7.9.1.4.2.8.2,1.2s0,.8-.2,1.2h0ZM304.5,228.8c0-1.5,0-2.9,0-4.4s0-2.9,0-4.4v-16.1c0-1.9,0-3.8,0-5.6,0-1.8,0-3.5,0-5.4h7.3c0,1.4,0,2.7,0,4.1,0,1.3,0,2.7,0,4s0,2.8,0,4.4v10.4c0,1.6,0,3.1,0,4.6,0,1.4,0,2.8,0,4.2s0,2.8,0,4.2h-7.3Z"/>
  <path class="st1" d="M325.1,193.2c1.2,0,2.5,0,3.8,0s2.6,0,4,0,2.8,0,4.2,0,2.8,0,4.2,0c1.4,0,2.8,0,4.1,0,0,.7,0,1.5,0,2.3s0,1.7,0,2.5v2.5c-.8,0-1.7-.1-2.6-.1s-1.9,0-2.9,0c-1,0-2.1,0-3.1,0-1.1,0-2.1,0-3.2,0h-3.2c-1,0-2.1,0-3.1,0-1,0-2,0-2.9,0h-2.6v-6.9c1,0,2.2,0,3.4,0h0ZM327.7,185.7h4.3c.4,0,.8,0,1.2-.1,0,2.1-.1,4.4-.1,6.7,0,2.3,0,4.7,0,7.2,0,2.5,0,5.2,0,8,0,2.8,0,5.7,0,8.7s.2,2.4.6,3.3,1,1.5,1.8,1.9c.9.4,2,.6,3.5.6s2.4-.1,3.4-.4c1.1-.3,2.1-.6,3-1,0,.5,0,1,.2,1.5s.1,1,.2,1.5c0,.5.1,1,.2,1.5s.1,1,.2,1.5c0,.4.1.9.2,1.3-.9.2-1.8.5-2.6.7-.8.2-1.7.4-2.6.5-.9.1-1.9.1-3,.1-2.2,0-4.1-.3-5.6-.9s-2.8-1.4-3.7-2.5c-1-1.1-1.7-2.4-2.1-3.9s-.6-3.1-.6-4.9v-4.4c0-1.6,0-3.3,0-5.1,0-1.8,0-3.7,0-5.6s0-3.8,0-5.7c0-1.9,0-3.8,0-5.6v-5.1c.5,0,1.1.1,1.8.1h0Z"/>
  <path class="st1" d="M379.2,228.8c0-1.9,0-3.8,0-5.9s0-4.4,0-7c0-2.6,0-5.3,0-8.2s-.2-3.5-.7-4.6c-.5-1.2-1.2-2-2.2-2.6-1-.6-2.4-.9-4.1-.9s-2.4.2-3.4.5c-1.1.4-2,.9-2.8,1.8s-1.4,1.9-1.9,3.1-.6,2.8-.6,4.6v6.2c0,1.8,0,3.4,0,4.6,0,1.3,0,2.5,0,3.5,0,1,0,1.9,0,2.7s0,1.5,0,2.3h-7.5c0-1.8.1-3.6.1-5.5,0-1.8,0-3.8,0-6v-13.8c0-2,0-3.9,0-5.8,0-1.9,0-3.7,0-5.4s0-3.4,0-5c0-1.6,0-3,0-4.3h7.6c0,1.9-.1,3.7-.1,5.3v5.1c0,1.5,0,2.8-.1,4.1,0,1.3,0,2.8-.1,4.6l-.3-2.8,1.2.2-1.4,2.5c.5-2.2,1.2-4,2.4-5.4s2.5-2.5,4.2-3.1,3.6-1,5.8-1,4.4.4,6.1,1.4c1.7.9,2.9,2.3,3.8,4.2.9,1.9,1.3,4.3,1.3,7.2s0,2.5,0,3.5c0,1,0,2,0,2.9,0,.9,0,1.8,0,2.6s0,1.6,0,2.5c0,2.2,0,4.3,0,6.2,0,1.9.1,3.9.1,5.8h-7.4,0Z"/>
  <path class="st1" d="M442.1,222.4c1.2-.3,2.2-.7,2.9-1.2.7-.6,1.2-1.2,1.6-1.9s.5-1.6.5-2.5-.1-1.4-.3-2.1c-.2-.7-.5-1.3-1-1.8-.5-.5-1.1-1-1.9-1.4-.8-.4-1.8-.8-3.1-1.2-1.2-.4-2.8-.7-4.5-.9-2.3-.4-4.3-.8-6-1.3-1.7-.5-3.2-1.2-4.4-2-1.2-.8-2.1-1.7-2.8-2.7-.7-1-1.2-2.2-1.6-3.4s-.5-2.6-.5-4.1.3-3.6,1-5.1c.6-1.5,1.6-2.8,2.9-3.8,1.3-1,2.9-1.8,4.9-2.4,2-.6,4.3-.8,7.1-.8s4.5.1,6.3.4c1.8.3,3.3.7,4.6,1.3s2.3,1.4,3.1,2.3,1.4,2.1,1.7,3.5c.4,1.4.6,3,.6,4.9s0,.6,0,.9c0,.3,0,.6,0,.9s0,.7,0,1c-.2,0-.5,0-.9,0h-2.5c-.6,0-1.3,0-1.9,0s-1.2,0-1.6,0c0-.4,0-.7,0-1,0-.3,0-.6,0-.9,0-1.1-.2-2-.5-2.9-.4-.9-.9-1.6-1.7-2.1s-1.7-1-2.9-1.2c-1.2-.3-2.6-.4-4.3-.4s-2.9.1-4,.4c-1.1.2-2,.6-2.6,1-.6.4-1.1,1-1.4,1.7s-.5,1.5-.5,2.3,0,1.2.2,1.8c.1.6.4,1.1.8,1.6.4.5,1,1,1.8,1.5.8.5,1.8.9,3.1,1.3,1.3.4,2.9.7,4.8.9,2.7.4,5.1,1,7,1.8s3.5,1.7,4.7,2.8c1.2,1.1,2.1,2.4,2.6,3.9.5,1.5.8,3.2.8,5.1s-.2,3.2-.6,4.5c-.4,1.4-1,2.6-1.8,3.6-.8,1.1-1.9,2-3.1,2.7-1.3.8-2.8,1.3-4.5,1.7-1.8.4-3.8.5-6.1.5s-4.7-.2-6.5-.5c-1.9-.4-3.5-.9-4.9-1.6-1.4-.7-2.5-1.6-3.3-2.6s-1.4-2.2-1.8-3.6-.6-2.9-.6-4.6v-.9c0-.3,0-.6,0-.9s0-.6.1-1c.4.1.9.2,1.5.2.6,0,1.2,0,2,0s1.4,0,2,0c.6,0,1.2,0,1.7,0v1.1c0,1.7.3,3.2,1,4.3.6,1.1,1.7,2,3.1,2.5,1.5.6,3.3.8,5.7.8s3.2-.1,4.4-.4h0Z"/>
  <path class="st1" d="M465.7,193.2c1.2,0,2.5,0,3.8,0s2.6,0,4,0,2.8,0,4.2,0,2.8,0,4.2,0c1.4,0,2.8,0,4.1,0,0,.7,0,1.5,0,2.3,0,.8,0,1.7,0,2.5v2.5c-.8,0-1.7-.1-2.6-.1s-1.9,0-2.9,0-2.1,0-3.1,0c-1.1,0-2.1,0-3.2,0h-3.2c-1,0-2.1,0-3.1,0-1,0-2,0-2.9,0h-2.6v-6.9c1,0,2.2,0,3.4,0h0ZM468.3,185.7h4.3c.4,0,.8,0,1.2-.1,0,2.1-.1,4.4-.1,6.7s0,4.7,0,7.2c0,2.5,0,5.2,0,8,0,2.8,0,5.7,0,8.7s.2,2.4.6,3.3,1,1.5,1.8,1.9c.9.4,2,.6,3.5.6s2.4-.1,3.4-.4,2.1-.6,3-1c0,.5,0,1,.2,1.5s.1,1,.2,1.5c0,.5.1,1,.2,1.5s.1,1,.2,1.5c0,.4.1.9.2,1.3-.9.2-1.8.5-2.6.7-.8.2-1.7.4-2.6.5-.9.1-1.9.1-3,.1-2.2,0-4.1-.3-5.6-.9s-2.8-1.4-3.7-2.5c-1-1.1-1.7-2.4-2.1-3.9-.4-1.5-.6-3.1-.6-4.9v-4.4c0-1.6,0-3.3,0-5.1,0-1.8,0-3.7,0-5.6s0-3.8,0-5.7c0-1.9,0-3.8,0-5.6v-5.1c.5,0,1.1.1,1.8.1h0Z"/>
  <path class="st1" d="M496.7,228.8c0-2.5,0-5.2,0-8.1s0-6.2,0-10,0-7,0-9.7,0-5.4,0-7.9h6.4c0,1.1,0,2.2,0,3.5,0,1.3-.1,2.6-.1,4.1s0,3.1-.2,4.8l-.3-4.9,1.1.2-1,4.6c.2-2.3.6-4.3,1.2-5.9s1.3-2.9,2.2-4,2-1.8,3.1-2.3,2.5-.7,4.1-.7,1.9,0,2.8.3c.9.2,1.6.4,2.3.7,0,.4-.2.9-.2,1.6,0,.7-.2,1.4-.3,2.1,0,.7-.2,1.4-.2,2.2,0,.7,0,1.3,0,1.9-.7-.4-1.5-.6-2.4-.7-.8-.1-1.8-.2-2.7-.2s-2.5.2-3.5.6-1.8,1-2.5,1.9-1.2,2-1.5,3.4-.5,3.2-.5,5.3v4.6c0,1.6,0,3.1,0,4.6,0,1.5,0,3,0,4.4s0,2.6,0,3.6h-7.8Z"/>
  <path class="st1" d="M535.8,228.9c-1.7-.4-3.1-1.2-4.4-2.1s-2.4-2.2-3.3-3.7c-.9-1.5-1.6-3.3-2.1-5.2-.5-2-.7-4.2-.7-6.8s.4-6,1.1-8.4c.7-2.4,1.8-4.3,3.2-5.8,1.4-1.5,3.1-2.6,5-3.4,2-.8,4.2-1.1,6.7-1.1s3.7.2,5.2.7c1.5.5,2.8,1.1,3.9,2,1.1.9,2,1.9,2.7,3.2.7,1.2,1.2,2.6,1.5,4.1.3,1.5.4,3.1.4,4.9s0,1.6,0,2.3c0,.7,0,1.4,0,1.9,0,.6,0,1.1,0,1.7-.6,0-1.4,0-2.2,0-.9,0-1.8,0-2.9,0h-15.2c-1.2,0-2.3,0-3.2,0l.2-4.4h6.3c1.1,0,2.3,0,3.4,0,1.2,0,2.3,0,3.3,0,1.1,0,2,0,3,0,.9,0,1.7,0,2.3,0l-1.5,1.6c0-.3.1-.8.2-1.3s0-1.2,0-2c0-1.9-.3-3.4-.8-4.6s-1.3-2.1-2.5-2.8-2.6-.9-4.3-.9-2.7.2-3.8.7c-1.1.5-2,1.2-2.8,2.2s-1.3,2.4-1.7,4-.6,3.7-.6,6.2.2,4,.6,5.5,1,2.8,1.7,3.7,1.7,1.6,2.8,2.1c1.1.5,2.5.7,4,.7s2.1-.1,2.9-.3c.8-.2,1.6-.5,2.1-.8s1-.8,1.3-1.3c.3-.5.5-1.1.7-1.8.2-.6.2-1.4.2-2.2.3,0,.6,0,1,.1s.7,0,1.1,0h1.2c.7,0,1.2,0,1.8,0s1,0,1.4-.1c0,1.2,0,2.4-.2,3.5-.2,1.1-.4,2.1-.8,3s-.9,1.7-1.6,2.5-1.5,1.4-2.5,1.9-2.2.9-3.7,1.2c-1.5.2-3.1.4-5,.4s-3.7-.2-5.4-.7h0Z"/>
  <path class="st1" d="M589.6,228.8c0-1.8,0-3.7,0-5.8,0-2.1,0-4.4,0-7,0-2.6,0-5.3,0-8.2s-.2-3.5-.7-4.7c-.5-1.2-1.2-2.1-2.2-2.7-1-.6-2.4-.9-4-.9s-2.4.2-3.5.6c-1.1.4-2,1-2.8,1.8s-1.5,1.8-1.9,3c-.5,1.2-.7,2.7-.7,4.4v6.3c0,1.8,0,3.4,0,4.7,0,1.3,0,2.6,0,3.6s0,2,0,2.8c0,.8,0,1.6,0,2.3h-7.5c0-1.6.1-3.2.1-4.9,0-1.7,0-3.6,0-5.5v-6.9c0-3.9,0-7.3,0-10.2,0-3,0-5.6-.1-8.1h7.5c0,1,0,2,0,2.9,0,.9,0,1.9,0,2.8,0,1,0,2-.1,3.2l-.2-2.9,1.1.2-1.3,2.6c.5-2.2,1.3-3.9,2.4-5.3s2.5-2.4,4.2-3.1c1.7-.7,3.6-1,5.8-1s4.5.5,6.2,1.4,2.9,2.4,3.8,4.4,1.3,4.5,1.3,7.6,0,2.6,0,3.6c0,1,0,1.9,0,2.8s0,1.6,0,2.4,0,1.6,0,2.4c0,2.2,0,4.2,0,6.1,0,1.9,0,3.8,0,5.6h-7.4Z"/>
  <path class="st1" d="M617.7,215.4c-.5.5-.8.9-1.1,1.4-.3.5-.5.9-.6,1.4-.1.4-.2.9-.2,1.3,0,.6.2,1.1.6,1.4.4.3,1,.5,1.9.5,1.7,0,3.2,0,4.8-.1,1.5-.1,3-.2,4.3-.3,1.3-.1,2.6-.1,3.7-.1,2,0,3.7.3,5,.8s2.3,1.4,3,2.5c.7,1.1,1,2.6,1,4.5s-.1,1.8-.3,2.7c-.2.9-.6,1.6-1.1,2.3s-1.2,1.3-2.1,1.9c-.9.5-2,1-3.2,1.4s-2.7.7-4.4.9-3.7.3-6,.3-5.2-.1-7.1-.3-3.5-.5-4.7-.9c-1.2-.4-2.1-.8-2.8-1.3s-1-1.1-1.2-1.7-.3-1.3-.3-2,.2-1.6.5-2.2.8-1.2,1.4-1.7c.6-.5,1.4-.9,2.3-1.3.9-.3,2-.6,3.2-.8l2.2-.2c-.9.7-1.7,1.3-2.2,1.8-.5.6-.8,1.1-.8,1.8s0,.9.3,1.2.5.7.9.9,1,.5,1.7.7,1.6.3,2.8.4,2.4.1,4,.1,3.5,0,4.8-.3,2.3-.4,3.2-.8c.8-.3,1.4-.7,1.8-1.2s.6-1.1.6-1.7-.1-1-.4-1.4-.7-.6-1.2-.7c-.6-.2-1.4-.2-2.4-.2s-2,0-3,0c-1.1,0-2.2,0-3.3.1-1.1,0-2.2.1-3.2.1s-2,0-2.8,0c-1.5,0-2.8-.1-3.8-.3s-1.8-.5-2.4-1c-.6-.4-1-1-1.3-1.6s-.4-1.3-.4-1.9c0-1.2.3-2.2.9-3.1.6-.9,1.4-1.6,2.4-2.3s2.1-1.1,3.2-1.5l2,.4h0ZM609.3,200.1c.6-1.5,1.5-2.8,2.7-3.9,1.2-1.1,2.7-1.8,4.5-2.3,1.8-.5,3.8-.8,6.2-.8h1.6c.8,0,1.9,0,3.1,0,1.2,0,2.6,0,4,0s2.9,0,4.5,0c1.5,0,3,0,4.4,0v6.3c-.5,0-1.2,0-2,0s-1.6,0-2.5-.1-1.8-.1-2.8-.1c-1,0-1.9-.1-2.8-.2-.9,0-1.7-.1-2.5-.2s-1.5,0-2.1-.1l.6-.3c1.7.2,3.1.4,4.4.7,1.3.3,2.3.7,3.2,1.2s1.5,1,2.1,1.7c.5.6.9,1.3,1.2,2.1s.4,1.8.4,2.9-.1,1.9-.4,2.8c-.3.9-.6,1.6-1.1,2.4s-1.1,1.4-1.9,2c-.8.6-1.8,1.1-2.9,1.5-1.1.4-2.4.7-3.7.9-1.4.2-2.9.3-4.7.3-2.6,0-4.7-.3-6.5-.8-1.8-.5-3.3-1.3-4.4-2.2s-2-2.2-2.5-3.6-.8-3.1-.8-4.9.3-3.6.9-5.1h0ZM612.3,225.7h1.5v1.1h-1.5v-1.1ZM614.4,214.1h1.5v1.9s-1.5,0-1.5,0v-1.9h0ZM630.2,201.9c-.6-.9-1.5-1.7-2.7-2.2-1.2-.6-2.8-.8-4.7-.8s-3.5.3-4.7.9-2,1.3-2.6,2.2c-.5.9-.8,2-.8,3.2s.3,2.3.8,3.1,1.4,1.6,2.6,2.1c1.2.5,2.8.8,4.7.8s3.5-.2,4.7-.7c1.2-.5,2.1-1.2,2.7-2.1s.9-2,.9-3.2-.3-2.3-.9-3.3h0ZM628.9,198.4h2.9v1.5h-2.9v-1.5Z"/>
  <path class="st1" d="M650.8,193.2c1.2,0,2.5,0,3.8,0s2.7,0,4,0c1.4,0,2.8,0,4.2,0s2.8,0,4.2,0c1.4,0,2.8,0,4.1,0,0,.7,0,1.5,0,2.3,0,.8,0,1.7,0,2.5v2.5c-.8,0-1.7-.1-2.6-.1s-1.9,0-2.9,0-2.1,0-3.1,0c-1.1,0-2.1,0-3.2,0h-3.2c-1,0-2.1,0-3.1,0-1,0-2,0-2.9,0h-2.6v-6.9c1,0,2.2,0,3.4,0h0ZM653.4,185.7h4.3c.4,0,.8,0,1.2-.1,0,2.1-.1,4.4-.1,6.7s0,4.7,0,7.2c0,2.5,0,5.2,0,8,0,2.8,0,5.7,0,8.7s.2,2.4.6,3.3,1,1.5,1.8,1.9c.8.4,2,.6,3.5.6s2.3-.1,3.4-.4,2.1-.6,3-1c0,.5,0,1,.2,1.5,0,.5.1,1,.2,1.5,0,.5.1,1,.2,1.5s.1,1,.2,1.5.1.9.2,1.3c-.9.2-1.8.5-2.6.7-.8.2-1.7.4-2.6.5-.9.1-1.9.1-3,.1-2.2,0-4.1-.3-5.6-.9-1.5-.6-2.8-1.4-3.7-2.5-1-1.1-1.7-2.4-2.1-3.9-.4-1.5-.6-3.1-.6-4.9v-4.4c0-1.6,0-3.3,0-5.1,0-1.8,0-3.7,0-5.6s0-3.8,0-5.7c0-1.9,0-3.8,0-5.6v-5.1c.5,0,1.1.1,1.8.1h0Z"/>
  <path class="st1" d="M704.9,228.8c0-1.9,0-3.8,0-5.9s0-4.4,0-7c0-2.6,0-5.3,0-8.2s-.2-3.5-.7-4.6c-.5-1.2-1.2-2-2.2-2.6s-2.4-.9-4.1-.9-2.4.2-3.4.5-2,.9-2.8,1.8-1.4,1.9-1.9,3.1-.7,2.8-.7,4.6v6.2c0,1.8,0,3.4,0,4.6s0,2.5,0,3.5c0,1,0,1.9,0,2.7s0,1.5,0,2.3h-7.5c0-1.8.1-3.6.1-5.5s0-3.8,0-6v-13.8c0-2,0-3.9,0-5.8,0-1.9,0-3.7,0-5.4s0-3.4,0-5c0-1.6,0-3,0-4.3h7.6c0,1.9,0,3.7,0,5.3v5.1c0,1.5,0,2.8,0,4.1,0,1.3,0,2.8,0,4.6l-.3-2.8,1.2.2-1.3,2.5c.5-2.2,1.2-4,2.4-5.4s2.5-2.5,4.2-3.1,3.6-1,5.8-1,4.4.4,6.1,1.4c1.7.9,2.9,2.3,3.8,4.2.9,1.9,1.3,4.3,1.3,7.2s0,2.5,0,3.5c0,1,0,2,0,2.9,0,.9,0,1.8,0,2.6,0,.8,0,1.6,0,2.5,0,2.2,0,4.3,0,6.2,0,1.9,0,3.9.1,5.8h-7.4Z"/>
  <path class="st0" d="M264.9,261.6c1.3,0,2.5.1,3.5.4s1.8.7,2.5,1.2,1.2,1.2,1.6,2.1c.4.8.6,1.9.6,3s-.2,2-.5,2.8c-.3.8-.8,1.5-1.5,2-.6.5-1.5,1-2.4,1.3-1,.3-2.1.5-3.5.5l2.3-.7v1l-2.3-.6c1.2.1,2.3.2,3.1.4s1.5.4,2,.7,1,.8,1.4,1.4.7,1.4,1.1,2.5c.3.7.5,1.4.7,2,.2.6.4,1.1.6,1.6s.3.8.5,1.1h-2.9c-.2,0-.4,0-.5-.1s-.2-.2-.3-.5c-.1-.2-.2-.6-.3-1-.3-1.1-.6-2.1-.9-2.9-.3-.8-.6-1.5-.8-2-.3-.5-.6-.9-.9-1.2-.4-.3-.8-.5-1.3-.6-.5-.1-1.1-.2-1.8-.2h-1.3c-.4,0-.8,0-1.2,0-.4,0-.8,0-1.3,0h-1.5c-.5,0-1.1,0-1.8,0v-2.5c.1,0,.5,0,.9,0,.5,0,1,0,1.6,0h2.1c.8,0,1.5,0,2.4,0s2.1-.2,2.9-.6,1.3-.9,1.7-1.6.6-1.5.6-2.4-.1-1.6-.3-2.2c-.2-.6-.5-1.1-1-1.4-.5-.4-1.1-.6-1.8-.8-.7-.2-1.6-.3-2.6-.3s-.6,0-1,0c-.4,0-.8,0-1.2,0s-.9,0-1.4,0c-.5,0-.9,0-1.3,0-.4,0-.8,0-1.2,0s-.7,0-.9,0l.8-1.4c0,2.1,0,4.2,0,6.3,0,2.1,0,4.1,0,6s0,3.6,0,5.2.1,2.9.2,4h-3.3c0-1.1,0-2.2,0-3.3,0-1.1,0-2.3,0-3.6,0-1.3,0-2.8,0-4.4,0-2.4,0-4.5,0-6.2s0-3.5,0-5.1h9.9Z"/>
  <path class="st0" d="M306.9,284.2c-.2,0-.3,0-.4,0-.1,0-.2,0-.3-.1,0,0-.1-.2-.1-.3,0-.1,0-.3,0-.5,0-.3,0-.7,0-1.2,0-.4,0-.9,0-1.3,0-.5,0-.9,0-1.2l.2,1.1h-.8c0,0,.6-1.2.6-1.2-.2,1.1-.6,2-1.2,2.8-.6.8-1.5,1.3-2.5,1.7s-2.3.6-3.8.6-1.9-.1-2.7-.3-1.5-.5-2-.9c-.5-.4-1-.9-1.2-1.5-.3-.6-.4-1.4-.4-2.3s.3-2.2.8-2.9,1.4-1.3,2.5-1.7c1.1-.4,2.5-.6,4.2-.6s2.7,0,3.8.2c1.1.1,2,.2,2.6.4v1.4c-.9-.2-1.8-.3-2.8-.3-1,0-2.1,0-3.2,0s-2.1.1-2.9.4-1.3.6-1.7,1.1-.6,1.1-.6,1.9.2,1.3.5,1.8.8.8,1.5,1.1,1.5.4,2.5.4,1.9-.1,2.7-.4,1.4-.6,2-1c.5-.5.9-1,1.2-1.6s.4-1.3.4-2.1,0-1.1,0-1.7,0-1.1,0-1.7c0-.5,0-1,0-1.4,0-.7-.1-1.3-.3-1.9-.2-.5-.5-1-.9-1.3s-.9-.6-1.6-.8-1.5-.3-2.4-.3-1.7,0-2.4.3c-.6.2-1.2.5-1.6.8s-.7.9-.9,1.4-.2,1.2-.2,2h-1.9c-.2,0-.4,0-.5,0s-.3,0-.5,0c0-1.1,0-2.1.4-3,.3-.9.8-1.6,1.5-2.2.7-.6,1.5-1,2.5-1.3s2.2-.4,3.5-.4,2.8.1,3.8.5c1,.3,1.9.7,2.5,1.3s1.1,1.2,1.4,2.1c.3.8.4,1.8.4,2.8s0,1.5,0,2.2c0,.7,0,1.4,0,2,0,.7,0,1.4,0,2.1s0,1.1,0,1.7,0,1.1,0,1.5,0,1,.1,1.4c0,.4.1.7.2,1h-2.4,0Z"/>
  <path class="st0" d="M339.1,282c.7-.1,1.2-.3,1.6-.5.4-.2.7-.6.9-.9.2-.4.3-.8.3-1.3s0-.9-.2-1.2-.5-.6-.9-.9c-.4-.2-1-.5-1.8-.7s-1.8-.3-3.1-.4c-1.5-.2-2.7-.4-3.7-.7-1-.3-1.7-.6-2.3-1.1-.5-.5-1-1-1.2-1.6-.2-.6-.4-1.2-.4-2s.2-1.6.5-2.2c.4-.6.9-1.2,1.5-1.6s1.5-.8,2.5-1,2.2-.3,3.5-.3,2,0,2.9.2c.9.1,1.6.4,2.2.6.6.3,1.1.6,1.5,1.1s.7.9.9,1.5c.2.6.3,1.2.3,1.9v.8c0,.1,0,.3,0,.4,0,0-.2,0-.4,0-.2,0-.3,0-.5,0h-1.2c-.2,0-.4,0-.6,0,0-.2,0-.3,0-.5,0-.2,0-.3,0-.4,0-.5-.1-1-.3-1.4s-.5-.8-.9-1c-.4-.3-.9-.5-1.6-.6-.6-.1-1.4-.2-2.4-.2s-1.6,0-2.3.1-1.2.3-1.6.5-.7.5-.9.9c-.2.3-.3.7-.3,1.2s0,.8.2,1.1c.1.3.4.6.8.9.4.3,1,.5,1.8.7.8.2,1.8.3,3.1.5,1.5.1,2.7.4,3.7.6s1.8.6,2.3,1.1c.6.5,1,1,1.2,1.6.2.6.4,1.3.4,2.1s-.2,1.6-.5,2.3-.8,1.2-1.5,1.7-1.5.8-2.5,1c-1,.2-2.2.3-3.6.3s-2.3,0-3.2-.2c-.9-.1-1.7-.4-2.4-.7s-1.2-.7-1.7-1.1-.8-1-1-1.5c-.2-.6-.3-1.2-.3-2s0-.2,0-.3,0-.2,0-.3v-.4c.1,0,.3,0,.4,0,.1,0,.3,0,.5,0h1.3c.2,0,.4,0,.6,0,0,.2,0,.3,0,.4v.3c0,.6.1,1.2.4,1.7s.6.8,1.1,1.1c.5.3,1.1.5,1.8.6s1.6.2,2.5.2,1.8,0,2.4-.2h0Z"/>
  <path class="st0" d="M403.7,284.2c-.2,0-.3,0-.4,0-.1,0-.2,0-.3-.1,0,0-.1-.2-.1-.3,0-.1,0-.3,0-.5,0-.3,0-.7,0-1.2,0-.4,0-.9,0-1.3,0-.5,0-.9,0-1.2l.2,1.1h-.8c0,0,.6-1.2.6-1.2-.2,1.1-.6,2-1.2,2.8-.6.8-1.5,1.3-2.5,1.7-1,.4-2.3.6-3.8.6s-1.9-.1-2.7-.3c-.8-.2-1.5-.5-2-.9-.5-.4-1-.9-1.2-1.5-.3-.6-.4-1.4-.4-2.3s.3-2.2.8-2.9,1.4-1.3,2.5-1.7c1.1-.4,2.5-.6,4.2-.6s2.7,0,3.8.2c1.1.1,2,.2,2.6.4v1.4c-.9-.2-1.8-.3-2.8-.3-1,0-2.1,0-3.2,0s-2.1.1-2.9.4-1.3.6-1.7,1.1-.6,1.1-.6,1.9.2,1.3.5,1.8.8.8,1.5,1.1,1.5.4,2.5.4,1.9-.1,2.7-.4c.8-.2,1.4-.6,2-1s.9-1,1.2-1.6.4-1.3.4-2.1,0-1.1,0-1.7,0-1.1,0-1.7,0-1,0-1.4c0-.7-.1-1.3-.3-1.9-.2-.5-.5-1-.9-1.3s-.9-.6-1.6-.8-1.5-.3-2.4-.3-1.8,0-2.4.3-1.2.5-1.6.8-.7.9-.9,1.4-.2,1.2-.2,2h-1.9c-.2,0-.4,0-.5,0s-.3,0-.5,0c0-1.1,0-2.1.4-3,.3-.9.8-1.6,1.5-2.2.7-.6,1.5-1,2.5-1.3s2.2-.4,3.5-.4,2.8.1,3.8.5c1,.3,1.9.7,2.5,1.3s1.1,1.2,1.4,2.1c.3.8.4,1.8.4,2.8s0,1.5,0,2.2c0,.7,0,1.4,0,2s0,1.4,0,2.1,0,1.1,0,1.7,0,1.1,0,1.5c0,.5,0,1,.1,1.4,0,.4.1.7.2,1h-2.4,0Z"/>
  <path class="st0" d="M425.9,284.2c0-.9,0-1.9,0-2.8s0-1.9,0-2.9c0-1,0-1.9,0-2.9v-9.2c0-.9,0-1.8,0-2.7,0-.9,0-1.9,0-2.8h3.1c0,1,0,1.9,0,2.8,0,.9,0,1.8,0,2.7v12.3c0,1,0,1.9,0,2.8,0,.9,0,1.8,0,2.8h-3.1Z"/>
  <path class="st0" d="M455.3,272.8c.6,0,1.3,0,1.9,0,.6,0,1.2,0,1.8,0,.6,0,1,0,1.4,0,0,.2,0,.4,0,.6,0,.2,0,.5,0,.7s0,.5,0,.7c0,.2,0,.4,0,.7-.3,0-.8,0-1.4,0-.6,0-1.2,0-1.8,0-.6,0-1.3,0-1.9,0h-3.4c-.6,0-1.3,0-1.9,0s-1.2,0-1.8,0c-.5,0-1,0-1.4,0,0-.2,0-.4,0-.7,0-.2,0-.5,0-.7s0-.5,0-.7c0-.2,0-.4,0-.6.4,0,.8,0,1.4,0s1.1,0,1.8,0,1.3,0,1.9,0h3.5Z"/>
  <path class="st0" d="M478.2,284.2c0-1,0-1.9,0-2.8,0-1,0-1.9,0-2.9v-9.2c0-1,0-2,0-2.9,0-.9,0-1.9,0-2.8s0-1.8,0-2.8h3.1c0,1,0,1.9,0,2.8s0,1.8,0,2.7v12.3c0,.9,0,1.9,0,2.8,0,.9,0,1.8,0,2.8h-3ZM491.8,284.2c-.3,0-.5,0-.8,0s-.4-.2-.5-.3c-.6-.5-1.2-1-1.9-1.6s-1.4-1.2-2.1-1.8c-.7-.6-1.5-1.2-2.2-1.8-.7-.6-1.4-1.1-2-1.6s-1.1-.9-1.6-1.2l1.5.5h-1.4v-1.3h1.1v.7h-1.3c.4-.3.7-.6,1.1-.9.3-.3.7-.6,1.1-.9.4-.3.7-.6,1.1-.9.3-.3.6-.6.9-.9,1.4-1.2,2.6-2.4,3.6-3.3,1-1,1.9-1.8,2.7-2.6h3.8c-.6.5-1.3,1-2,1.7-.7.6-1.4,1.3-2.2,2s-1.5,1.4-2.3,2.2c-.8.7-1.5,1.4-2.3,2.1s-1.5,1.2-2.2,1.7v-.8c.1,0,.1.9.1.9l-.2-1c.5.4,1.1.9,1.8,1.4.6.5,1.3,1.1,2.1,1.7.7.6,1.5,1.2,2.2,1.8.7.6,1.4,1.2,2.1,1.7.7.5,1.3,1.1,1.8,1.5.5.5,1,.9,1.4,1.2h-3.3Z"/>
  <path class="st0" d="M527,284.2c0-1,0-2,0-3.1s0-2.3,0-3.6,0-2.8,0-4.4-.2-1.9-.5-2.6-.9-1.2-1.6-1.6c-.7-.4-1.7-.5-2.8-.5s-1.6.1-2.4.3-1.4.6-2,1-1,1-1.3,1.7-.5,1.5-.5,2.5v3.3c0,1,0,1.8,0,2.5v1.9c0,.5,0,1,0,1.4,0,.4,0,.8,0,1.2h-3.1c0-.9,0-1.8,0-2.8,0-.9,0-2,0-3.1,0-1.1,0-2.4,0-3.9s0-2.2,0-3.2,0-2,0-3c0-1,0-1.9,0-2.7s0-1.7,0-2.5c0-.8,0-1.5,0-2.2h3.1c0,1,0,1.9,0,2.8,0,.9,0,1.8,0,2.7s0,1.5,0,2.2c0,.7,0,1.5,0,2.4l-.2-1.5h.7c0,0-.7,1.3-.7,1.3.3-1.1.7-2,1.4-2.8s1.6-1.3,2.6-1.7c1-.4,2.2-.5,3.5-.5s2.7.2,3.7.7c1,.5,1.8,1.2,2.3,2.2s.8,2.2.8,3.6v1.8c0,.5,0,1,0,1.4s0,.9,0,1.3v1.2c0,1.1,0,2.2,0,3.2,0,1,0,2,0,3h-3,0Z"/>
  <path class="st0" d="M563.5,284.2c-.2,0-.3,0-.4,0,0,0-.2,0-.3-.1,0,0-.1-.2-.1-.3s0-.3,0-.5c0-.3,0-.7,0-1.2,0-.4,0-.9,0-1.3,0-.5,0-.9,0-1.2l.2,1.1h-.8c0,0,.6-1.2.6-1.2-.2,1.1-.6,2-1.2,2.8-.6.8-1.5,1.3-2.5,1.7s-2.3.6-3.8.6-1.9-.1-2.7-.3-1.5-.5-2-.9c-.5-.4-1-.9-1.2-1.5-.3-.6-.4-1.4-.4-2.3s.3-2.2.8-2.9,1.4-1.3,2.5-1.7c1.1-.4,2.5-.6,4.2-.6s2.7,0,3.8.2c1.1.1,2,.2,2.6.4v1.4c-.9-.2-1.8-.3-2.8-.3s-2.1,0-3.2,0-2.1.1-2.9.4-1.3.6-1.7,1.1-.6,1.1-.6,1.9.2,1.3.5,1.8.8.8,1.5,1.1,1.5.4,2.5.4,1.9-.1,2.7-.4,1.4-.6,2-1c.5-.5.9-1,1.2-1.6s.4-1.3.4-2.1,0-1.1,0-1.7c0-.6,0-1.1,0-1.7,0-.5,0-1,0-1.4,0-.7,0-1.3-.3-1.9-.2-.5-.5-1-.9-1.3s-.9-.6-1.6-.8c-.7-.2-1.5-.3-2.4-.3s-1.8,0-2.4.3-1.2.5-1.6.8-.7.9-.9,1.4-.2,1.2-.2,2h-1.8c-.2,0-.3,0-.5,0-.2,0-.3,0-.5,0,0-1.1,0-2.1.4-3,.3-.9.8-1.6,1.5-2.2.7-.6,1.5-1,2.5-1.3,1-.3,2.2-.4,3.5-.4s2.8.1,3.8.5c1,.3,1.9.7,2.5,1.3s1.1,1.2,1.4,2.1c.3.8.4,1.8.4,2.8s0,1.5,0,2.2c0,.7,0,1.4,0,2,0,.7,0,1.4,0,2.1s0,1.1,0,1.7,0,1.1,0,1.5c0,.5,0,1,.1,1.4,0,.4.1.7.2,1h-2.4,0Z"/>
  <path class="st0" d="M589.6,263.2c0,.2-.2.3-.3.5s-.4.2-.6.3-.6,0-1.1,0-.8,0-1.1,0c-.3,0-.5-.2-.7-.3s-.3-.3-.3-.5,0-.4,0-.6,0-.4.1-.6c0-.2.2-.3.3-.4s.3-.2.6-.3.6,0,1.1,0,.7,0,1,0c.3,0,.5.1.7.3.2.1.3.2.3.4s.1.4.1.6,0,.4-.1.6h0ZM586.1,284.2c0-.7,0-1.5,0-2.2,0-.7,0-1.5,0-2.2v-8.2c0-1,0-1.9,0-2.8,0-.9,0-1.8,0-2.7h3c0,.7,0,1.4,0,2,0,.7,0,1.3,0,2,0,.7,0,1.4,0,2.2v5.2c0,.8,0,1.6,0,2.3,0,.7,0,1.4,0,2.1,0,.7,0,1.4,0,2.2h-3,0Z"/>
  <path class="st0" d="M633.2,284.2c0-.8,0-1.8,0-3,0-1.2,0-2.5,0-4v-4.6c0-1.4-.3-2.5-.9-3.2-.6-.7-1.6-1.1-3.1-1.1s-1.4.1-2,.3c-.6.2-1.2.5-1.6,1s-.8,1-1.1,1.6c-.3.6-.4,1.4-.4,2.4v7.4c0,.6,0,1.2,0,1.7,0,.5,0,1,0,1.5h-2.9c0-.8,0-1.8,0-2.8s0-2.3,0-3.7,0-3.1,0-5-.3-2.5-.9-3.3c-.6-.7-1.7-1.1-3.2-1.1s-1.4.1-2,.3-1.2.5-1.6,1-.8,1-1.1,1.6-.4,1.4-.4,2.4v7.4c0,.7,0,1.3,0,1.8,0,.5,0,1,0,1.4h-2.9c0-1.2,0-2.5,0-3.9,0-1.4,0-3,0-4.8s0-3.8,0-5.2c0-1.5,0-2.9,0-4.2h3.1c0,.5,0,1,0,1.5,0,.5,0,.9,0,1.4s0,1,0,1.7l-.2-1.4h.7c0,.1-.7,1.3-.7,1.3.3-1.1.7-2,1.3-2.6.6-.7,1.3-1.2,2.1-1.6.8-.4,1.8-.5,3-.5s1.6.1,2.3.3c.7.2,1.3.5,1.8.9s.8.9,1.1,1.5.4,1.4.5,2.2l-.3-1.2h.6c0,.1-.7,1.2-.7,1.2.3-1.1.7-2,1.3-2.8s1.3-1.2,2.2-1.6c.9-.3,1.9-.5,3-.5s2.3.2,3.2.6,1.5,1,2,1.9.7,2,.7,3.3,0,1.1,0,1.6,0,1.1,0,1.7c0,.5,0,1.1,0,1.7s0,1.1,0,1.6c0,1,0,2,0,3.1,0,1.1,0,2.1,0,2.9h-3Z"/>
  <path class="st0" d="M669.8,284.2c-.2,0-.3,0-.4,0,0,0-.2,0-.3-.1,0,0-.1-.2-.1-.3s0-.3,0-.5c0-.3,0-.7,0-1.2,0-.4,0-.9,0-1.3,0-.5,0-.9,0-1.2l.2,1.1h-.8c0,0,.6-1.2.6-1.2-.2,1.1-.6,2-1.2,2.8-.6.8-1.5,1.3-2.5,1.7s-2.3.6-3.8.6-1.9-.1-2.7-.3-1.5-.5-2-.9c-.5-.4-1-.9-1.2-1.5-.3-.6-.4-1.4-.4-2.3s.3-2.2.8-2.9,1.4-1.3,2.5-1.7c1.1-.4,2.5-.6,4.2-.6s2.7,0,3.8.2c1.1.1,2,.2,2.6.4v1.4c-.9-.2-1.8-.3-2.8-.3s-2.1,0-3.2,0-2.1.1-2.9.4-1.3.6-1.7,1.1-.6,1.1-.6,1.9.2,1.3.5,1.8.8.8,1.5,1.1,1.5.4,2.5.4,1.9-.1,2.7-.4,1.4-.6,2-1c.5-.5.9-1,1.2-1.6s.4-1.3.4-2.1,0-1.1,0-1.7c0-.6,0-1.1,0-1.7,0-.5,0-1,0-1.4,0-.7,0-1.3-.3-1.9-.2-.5-.5-1-.9-1.3s-.9-.6-1.6-.8c-.7-.2-1.5-.3-2.4-.3s-1.8,0-2.4.3-1.2.5-1.6.8-.7.9-.9,1.4-.2,1.2-.2,2h-1.8c-.2,0-.3,0-.5,0-.2,0-.3,0-.5,0,0-1.1,0-2.1.4-3,.3-.9.8-1.6,1.5-2.2.7-.6,1.5-1,2.5-1.3,1-.3,2.2-.4,3.5-.4s2.8.1,3.8.5c1,.3,1.9.7,2.5,1.3s1.1,1.2,1.4,2.1c.3.8.4,1.8.4,2.8s0,1.5,0,2.2c0,.7,0,1.4,0,2,0,.7,0,1.4,0,2.1s0,1.1,0,1.7,0,1.1,0,1.5c0,.5,0,1,.1,1.4,0,.4.1.7.2,1h-2.4,0Z"/>
  <path class="st0" d="M706.1,284.2c0-1,0-2,0-3.1s0-2.3,0-3.6,0-2.8,0-4.4-.2-1.9-.5-2.6-.9-1.2-1.6-1.6c-.7-.4-1.7-.5-2.8-.5s-1.6.1-2.4.3-1.4.6-2,1-1,1-1.3,1.7-.5,1.5-.5,2.5v3.3c0,1,0,1.8,0,2.5v1.9c0,.5,0,1,0,1.4,0,.4,0,.8,0,1.2h-3.1c0-.9,0-1.8,0-2.8,0-.9,0-2,0-3.1,0-1.1,0-2.4,0-3.9s0-2.2,0-3.2,0-2,0-3c0-1,0-1.9,0-2.7s0-1.7,0-2.5c0-.8,0-1.5,0-2.2h3.1c0,1,0,1.9,0,2.8,0,.9,0,1.8,0,2.7s0,1.5,0,2.2c0,.7,0,1.5,0,2.4l-.2-1.5h.7c0,0-.7,1.3-.7,1.3.3-1.1.7-2,1.4-2.8s1.6-1.3,2.6-1.7c1-.4,2.2-.5,3.5-.5s2.7.2,3.7.7c1,.5,1.8,1.2,2.3,2.2s.8,2.2.8,3.6v1.8c0,.5,0,1,0,1.4s0,.9,0,1.3v1.2c0,1.1,0,2.2,0,3.2,0,1,0,2,0,3h-3,0Z"/>
  <line class="st4" x1="250.5" y1="249" x2="713" y2="249"/>
</svg>