<?xml version="1.0" encoding="UTF-8"?>
<svg id="Layer_1" xmlns="http://www.w3.org/2000/svg" version="1.1" viewBox="0 0 798.26 392.09">
  <!-- Generator: Adobe Illustrator 29.3.1, SVG Export Plug-In . SVG Version: 2.1.0 Build 151)  -->
  <defs>
    <style>
      .st0 {
        fill: #2e3192;
      }

      .st1 {
        stroke-linecap: round;
        stroke-width: 6px;
      }

      .st1, .st2 {
        fill: none;
        stroke: #116197;
        stroke-miterlimit: 10;
      }

      .st3 {
        fill: #13629a;
      }

      .st4 {
        fill: #31a1d4;
      }
    </style>
  </defs>
  <g>
    <polygon class="st4" points="127.32 156.61 152.29 168.78 152.29 253.87 127.32 266.07 127.32 156.61"/>
    <polygon class="st4" points="91.63 156.61 116.79 141.86 117.09 280.17 152.29 298.84 152.29 336.65 91.63 302.57 91.63 156.61"/>
    <g>
      <polygon class="st1" points="89.98 127.59 89.98 304.57 154.27 340.58 156.2 162.83 89.98 127.59"/>
      <polyline class="st1" points="67.14 167.09 221.26 82.67 219.32 334.38 117.09 280.17 117.48 92.74 194.54 49.76 194.15 239.9 117.09 280.17"/>
    </g>
  </g>
  <g>
    <g>
      <path class="st3" d="M253.06,153.42c.1-3.08.16-6.38.18-9.89.02-3.51.03-7.62.03-12.32,0-3.12,0-6.01-.03-8.68-.02-2.66-.04-5.11-.08-7.34-.04-2.23-.07-4.29-.1-6.19h19.48c2.32,0,4.34.21,6.05.62,1.71.41,3.15,1.1,4.31,2.04,1.16.95,2.02,2.14,2.57,3.58.55,1.44.83,3.19.83,5.24,0,1.58-.17,2.95-.49,4.12-.33,1.17-.81,2.16-1.43,2.99-.62.83-1.44,1.52-2.44,2.07-.97.55-2.23.93-3.77,1.12-1.54.2-3.26.36-5.17.47l4.31-1.07v1.78l-4.31-1.01c1.83.08,3.46.18,4.88.3,1.42.12,2.61.38,3.58.77,1.21.55,2.22,1.24,3.04,2.07.81.83,1.4,1.86,1.77,3.08.36,1.22.55,2.65.55,4.26,0,2.01-.29,3.78-.86,5.3-.57,1.52-1.42,2.75-2.54,3.7-1.13.95-2.55,1.68-4.26,2.19-1.71.51-3.71.77-6,.77h-20.1ZM259.19,127.9c2.11.04,4.14.08,6.08.12,1.94.04,3.72.06,5.35.06,1.97-.08,3.56-.36,4.75-.83,1.19-.47,2.07-1.2,2.62-2.19.55-.99.83-2.21.83-3.67s-.28-2.62-.83-3.49c-.55-.87-1.41-1.47-2.57-1.81-1.16-.33-2.69-.5-4.6-.5-1.77,0-3.65.02-5.64.06-1.99.04-4.08.1-6.26.18l2.03-3.79c-.04.95-.07,2.1-.1,3.46-.03,1.36-.05,2.87-.05,4.53v16.11c0,1.82,0,3.59.03,5.33.02,1.74.03,3.36.05,4.86.02,1.5.06,2.84.13,4.03l-1.61-4.2c2.29.08,4.4.13,6.34.15,1.94.02,3.67.03,5.19.03s2.86-.11,3.9-.33c1.04-.22,1.9-.56,2.57-1.04s1.15-1.12,1.43-1.95c.28-.83.42-1.9.42-3.2,0-1.42-.29-2.58-.86-3.46-.57-.89-1.48-1.54-2.73-1.95-1.25-.41-2.89-.62-4.94-.62h-3.58c-1.28,0-2.59.01-3.92.03-1.33.02-2.73.05-4.18.09l.16-5.98Z"/>
      <path class="st3" d="M301.73,117.71c-.07,1.78-.11,3.75-.13,5.92-.02,2.17-.03,4.55-.03,7.14v8.56c0,1.86.23,3.38.7,4.56.47,1.18,1.22,2.06,2.26,2.64,1.04.57,2.35.86,3.95.86,1.25,0,2.41-.18,3.48-.53,1.07-.36,2.02-.95,2.83-1.78.81-.83,1.45-1.85,1.9-3.08.45-1.22.68-2.66.68-4.32v-6.48c0-1.84-.02-3.44-.05-4.83-.03-1.38-.05-2.58-.05-3.58v-5.06h7.43c-.03,1.66-.06,3.3-.08,4.91-.02,1.62-.04,3.43-.05,5.42-.02,1.99-.03,4.33-.03,7.02,0,3.95.02,7.4.05,10.36.03,2.96.07,5.63.1,7.99h-7.48c.03-1.1.07-2.08.1-2.93.03-.85.05-1.75.05-2.69s.03-2.09.1-3.43l.21,2.96-1.14-.24,1.35-2.55c-.45,2.17-1.23,3.95-2.34,5.33-1.11,1.38-2.49,2.42-4.13,3.11-1.65.69-3.56,1.04-5.74,1.04-2.46,0-4.53-.49-6.21-1.48-1.68-.99-2.96-2.42-3.84-4.29-.88-1.87-1.32-4.27-1.32-7.19v-3.7c0-1.09,0-2.06.03-2.93.02-.87.03-1.7.03-2.49v-2.55c0-2.09,0-4.1-.03-6.01-.02-1.91-.06-3.8-.13-5.65h7.53Z"/>
      <path class="st3" d="M341.71,112.44c-.12.36-.35.68-.68.98-.33.3-.8.52-1.4.68-.61.16-1.39.24-2.36.24s-1.81-.08-2.42-.24c-.61-.16-1.07-.39-1.4-.68-.33-.3-.56-.62-.7-.98-.14-.36-.21-.75-.21-1.18s.08-.84.23-1.21c.16-.37.4-.67.73-.89.33-.22.8-.4,1.4-.56.61-.16,1.39-.24,2.36-.24s1.71.08,2.31.24c.61.16,1.08.35,1.43.56.35.22.58.51.7.89.12.38.18.78.18,1.21s-.06.83-.18,1.18ZM333.58,153.42c.03-1.46.06-2.91.08-4.35.02-1.44.03-2.89.03-4.35v-16.08c0-1.95-.02-3.81-.05-5.57-.03-1.76-.05-3.54-.05-5.36h7.32c-.04,1.38-.06,2.73-.08,4.06-.02,1.32-.03,2.66-.05,4.03-.02,1.36-.03,2.81-.03,4.35v10.36c0,1.62,0,3.14.03,4.56.02,1.42.03,2.81.05,4.17.02,1.36.04,2.75.08,4.17h-7.32Z"/>
      <path class="st3" d="M349.73,153.42c.03-1.7.06-3.46.08-5.3.02-1.84.03-3.69.05-5.57.02-1.87.03-3.79.03-5.74v-18.15c0-1.85-.02-3.68-.05-5.48-.03-1.8-.07-3.66-.1-5.6h7.48c-.07,1.86-.11,3.66-.13,5.42-.02,1.76-.03,3.56-.03,5.42v24.43c0,1.8,0,3.57.03,5.33.02,1.76.04,3.5.08,5.24h-7.43Z"/>
      <path class="st3" d="M395.34,107.59c-.03,1.7-.06,3.38-.08,5.03-.02,1.66-.04,3.43-.05,5.33-.02,1.89-.03,4.01-.03,6.34v7.88c0,3.04,0,5.79.03,8.26.02,2.47.02,4.78,0,6.93-.02,2.15.03,4.2.13,6.13h-7.48c.03-.67.06-1.35.08-2.04.02-.69.03-1.43.03-2.22,0-.91.03-1.87.08-2.87.05-1.01.11-2,.18-2.99l.42,2.84-1.51-.18,1.25-2.61c-.17,1.11-.49,2.16-.94,3.17-.45,1.01-1,1.97-1.64,2.9-.64.93-1.42,1.73-2.34,2.4-.92.67-1.92,1.19-3.01,1.57-1.09.37-2.31.56-3.66.56-1.9,0-3.66-.37-5.27-1.1s-2.98-1.83-4.1-3.29c-1.13-1.46-2-3.34-2.62-5.63-.62-2.29-.94-5.01-.94-8.17s.34-5.8,1.01-8.17,1.63-4.33,2.86-5.89c1.23-1.56,2.68-2.73,4.36-3.52,1.68-.79,3.49-1.18,5.43-1.18s3.52.27,4.96.8c1.44.53,2.67,1.31,3.69,2.34,1.02,1.03,1.86,2.29,2.52,3.79l-1.3-1.6,1.09-.35-.42,2.37c-.07-1.07-.11-2.04-.13-2.93-.02-.89-.04-1.76-.05-2.61-.02-.85-.03-1.79-.03-2.81v-4.41c0-1.28-.02-2.64-.05-4.06h7.53ZM371.36,141.19c.4,1.48.96,2.69,1.69,3.61.73.93,1.6,1.62,2.62,2.07,1.02.45,2.17.68,3.45.68,1.18,0,2.31-.22,3.4-.65,1.09-.43,2.03-1.06,2.83-1.87.8-.81,1.43-1.84,1.9-3.08.47-1.24.7-2.61.7-4.12v-12.79l.83,2.01c-.76-.71-1.61-1.32-2.55-1.84-.94-.51-1.95-.89-3.04-1.12s-2.26-.35-3.51-.35c-1.49,0-2.78.24-3.87.71s-2.01,1.2-2.75,2.19c-.75.99-1.32,2.24-1.71,3.76-.4,1.52-.6,3.31-.6,5.36s.2,3.94.6,5.42Z"/>
      <path class="st3" d="M412.35,112.44c-.12.36-.35.68-.67.98-.33.3-.8.52-1.4.68-.61.16-1.39.24-2.36.24s-1.81-.08-2.42-.24c-.61-.16-1.07-.39-1.4-.68s-.56-.62-.7-.98c-.14-.36-.21-.75-.21-1.18s.08-.84.23-1.21c.16-.37.4-.67.73-.89.33-.22.8-.4,1.4-.56.61-.16,1.39-.24,2.36-.24s1.71.08,2.31.24c.61.16,1.08.35,1.43.56.35.22.58.51.7.89.12.38.18.78.18,1.21s-.06.83-.18,1.18ZM404.22,153.42c.03-1.46.06-2.91.08-4.35.02-1.44.03-2.89.03-4.35v-16.08c0-1.95-.02-3.81-.05-5.57-.04-1.76-.05-3.54-.05-5.36h7.32c-.04,1.38-.06,2.73-.08,4.06-.02,1.32-.04,2.66-.05,4.03-.02,1.36-.03,2.81-.03,4.35v10.36c0,1.62,0,3.14.03,4.56.02,1.42.03,2.81.05,4.17.02,1.36.04,2.75.08,4.17h-7.32Z"/>
      <path class="st3" d="M443.44,153.42c0-1.78,0-3.72.03-5.83.02-2.11.03-4.44.05-6.99.02-2.55.03-5.28.03-8.2,0-1.93-.23-3.51-.7-4.74-.47-1.22-1.2-2.13-2.21-2.72-1-.59-2.36-.89-4.05-.89-1.25,0-2.4.2-3.45.59-1.06.4-1.99.98-2.8,1.75-.81.77-1.45,1.76-1.9,2.96-.45,1.2-.67,2.66-.67,4.35v6.28c0,1.82,0,3.4.03,4.74.02,1.34.03,2.55.03,3.61s0,1.99.03,2.78c.02.79.03,1.56.03,2.31h-7.48c.07-1.58.11-3.23.13-4.94.02-1.72.03-3.56.03-5.54v-6.93c0-3.87,0-7.28-.03-10.24-.02-2.96-.06-5.65-.13-8.05h7.53c0,1.03,0,1.99-.03,2.9-.02.91-.05,1.85-.1,2.81-.05.97-.1,2.04-.13,3.23l-.21-2.9,1.14.24-1.35,2.55c.48-2.17,1.28-3.95,2.39-5.33,1.11-1.38,2.49-2.41,4.16-3.08,1.66-.67,3.6-1.01,5.82-1.01,2.42,0,4.48.47,6.16,1.42,1.68.95,2.94,2.42,3.79,4.41.85,1.99,1.27,4.53,1.27,7.61,0,1.38,0,2.58-.03,3.58-.02,1.01-.03,1.92-.03,2.75s0,1.62-.03,2.37c-.02.75-.03,1.56-.03,2.43,0,2.17.02,4.2.05,6.1.03,1.9.07,3.77.1,5.63h-7.43Z"/>
      <path class="st3" d="M467.54,139.98c-.45.47-.81.94-1.07,1.39-.26.45-.46.91-.6,1.36-.14.45-.21.88-.21,1.27,0,.63.21,1.11.62,1.42.42.32,1.04.47,1.87.47,1.66,0,3.25-.05,4.78-.15,1.52-.1,2.95-.2,4.29-.3,1.33-.1,2.57-.15,3.71-.15,2.01,0,3.69.28,5.04.83,1.35.55,2.35,1.39,3.01,2.52.66,1.13.99,2.62.99,4.47,0,.95-.11,1.84-.34,2.69-.23.85-.6,1.63-1.12,2.34s-1.22,1.33-2.1,1.87c-.88.53-1.95.99-3.2,1.36-1.25.38-2.73.66-4.44.86-1.71.2-3.7.3-5.95.3-2.8,0-5.16-.1-7.06-.3-1.9-.2-3.46-.48-4.67-.86-1.21-.38-2.13-.82-2.75-1.33-.62-.51-1.04-1.08-1.25-1.69-.21-.61-.31-1.29-.31-2.04,0-.83.16-1.56.47-2.19.31-.63.78-1.2,1.4-1.72.62-.51,1.4-.94,2.34-1.27.93-.33,2.01-.6,3.22-.8l2.18-.24c-.94.67-1.67,1.28-2.21,1.84-.54.55-.8,1.15-.8,1.78,0,.47.09.89.26,1.24.17.36.48.66.91.92.43.26,1.01.48,1.74.68.73.2,1.64.34,2.75.44,1.11.1,2.42.15,3.95.15,1.9,0,3.5-.09,4.78-.27,1.28-.18,2.34-.44,3.17-.77.83-.34,1.44-.74,1.82-1.21.38-.47.57-1.05.57-1.72,0-.59-.12-1.05-.36-1.36-.24-.32-.65-.55-1.22-.71-.57-.16-1.38-.24-2.42-.24-.93,0-1.95.01-3.04.03-1.09.02-2.21.06-3.35.12-1.14.06-2.23.11-3.25.15-1.02.04-1.97.06-2.83.06-1.52,0-2.8-.11-3.82-.33-1.02-.22-1.84-.54-2.44-.98-.61-.43-1.03-.97-1.27-1.6-.24-.63-.36-1.26-.36-1.89,0-1.18.31-2.22.94-3.11s1.44-1.65,2.44-2.28c1-.63,2.08-1.13,3.22-1.48l1.97.41ZM459.15,124.67c.61-1.52,1.51-2.8,2.73-3.85,1.21-1.05,2.71-1.83,4.49-2.34,1.78-.51,3.85-.77,6.21-.77h1.61c.83,0,1.86,0,3.09-.03,1.23-.02,2.57-.02,4.03,0,1.46.02,2.94.04,4.47.06,1.52.02,2.98.03,4.36.03v6.28c-.55,0-1.22,0-2-.03-.78-.02-1.62-.06-2.52-.12-.9-.06-1.84-.11-2.8-.15-.97-.04-1.91-.1-2.8-.18-.9-.08-1.73-.14-2.49-.18-.76-.04-1.45-.08-2.08-.12l.57-.3c1.66.16,3.12.4,4.39.71,1.26.32,2.32.71,3.17,1.18s1.54,1.03,2.08,1.66c.54.63.93,1.34,1.19,2.13.26.79.39,1.76.39,2.9,0,.99-.13,1.9-.39,2.75-.26.85-.62,1.64-1.09,2.37-.47.73-1.1,1.39-1.9,1.98-.8.59-1.75,1.09-2.86,1.48-1.11.4-2.36.69-3.74.89-1.39.2-2.94.3-4.68.3-2.56,0-4.74-.26-6.54-.77-1.8-.51-3.27-1.26-4.42-2.25-1.14-.99-1.99-2.2-2.54-3.64-.55-1.44-.83-3.07-.83-4.89s.3-3.6.91-5.12ZM462.19,150.34h1.51v1.07h-1.51v-1.07ZM464.26,138.67h1.45l.05,1.89h-1.51v-1.89ZM480.08,126.53c-.57-.95-1.47-1.7-2.7-2.25-1.23-.55-2.78-.83-4.65-.83-1.97,0-3.55.29-4.73.86-1.18.57-2.04,1.32-2.6,2.25-.55.93-.83,2-.83,3.23s.28,2.27.83,3.14c.55.87,1.43,1.56,2.62,2.07,1.2.51,2.76.77,4.7.77s3.46-.24,4.67-.71c1.21-.47,2.1-1.16,2.67-2.07.57-.91.86-1.97.86-3.2s-.29-2.31-.86-3.26ZM478.76,122.98h2.86v1.48l-2.86-.12v-1.36Z"/>
      <path class="st3" d="M541.82,126.59v-.71c0-2.41-.36-4.33-1.06-5.77-.71-1.44-1.81-2.48-3.3-3.11-1.49-.63-3.27-.95-5.35-.95-1.39,0-2.64.16-3.77.47-1.12.32-2.13.84-3.01,1.57-.88.73-1.64,1.66-2.26,2.78-.62,1.12-1.09,2.51-1.4,4.15-.31,1.64-.47,3.54-.47,5.71s.16,4.17.49,5.86c.33,1.7.81,3.17,1.45,4.41s1.4,2.26,2.29,3.05c.88.79,1.92,1.35,3.12,1.69,1.2.34,2.45.5,3.77.5,2.25,0,4.08-.38,5.51-1.15,1.42-.77,2.47-1.88,3.14-3.35.67-1.46,1.01-3.24,1.01-5.33v-1.01h7.64c-.04.12-.05.28-.05.47s0,.4.03.59c.02.2.03.4.03.59,0,2.69-.35,5.08-1.04,7.19-.69,2.11-1.76,3.91-3.19,5.39-1.44,1.48-3.24,2.6-5.4,3.35s-4.67,1.12-7.51,1.12c-2.53,0-4.79-.32-6.78-.95-1.99-.63-3.76-1.58-5.3-2.84-1.54-1.26-2.82-2.83-3.84-4.71-1.02-1.87-1.79-4.04-2.31-6.48-.52-2.45-.78-5.17-.78-8.17,0-3.91.44-7.28,1.33-10.13.88-2.84,2.14-5.19,3.77-7.05,1.63-1.85,3.61-3.24,5.95-4.15,2.34-.91,5-1.36,7.97-1.36,2.18,0,4.16.21,5.95.62s3.36,1.06,4.73,1.92c1.37.87,2.51,1.95,3.43,3.26.92,1.3,1.63,2.81,2.13,4.53s.75,3.66.75,5.83c0,.32,0,.59-.03.83-.02.24-.03.49-.03.77v.89c-.66-.04-1.29-.06-1.9-.06h-3.17c-.43,0-.85.01-1.25.03-.4.02-.79.03-1.17.03-.07-.12-.1-.24-.1-.35Z"/>
      <path class="st3" d="M556.98,153.42c.03-1.7.06-3.46.08-5.3.02-1.84.03-3.69.05-5.57.02-1.87.03-3.79.03-5.74v-18.15c0-1.85-.02-3.68-.05-5.48-.04-1.8-.07-3.66-.1-5.6h7.48c-.07,1.86-.11,3.66-.13,5.42-.02,1.76-.03,3.56-.03,5.42v24.43c0,1.8,0,3.57.03,5.33.02,1.76.04,3.5.08,5.24h-7.43Z"/>
      <path class="st3" d="M595.42,153.42c-.35,0-.63-.03-.86-.09s-.41-.16-.54-.3c-.14-.14-.23-.33-.29-.59-.05-.26-.08-.64-.08-1.15,0-.59.02-1.28.05-2.07.03-.79.06-1.59.08-2.4.02-.81.03-1.57.03-2.28l.57,2.49-1.3-.12.93-2.61c-.24,2.17-.88,3.98-1.9,5.42-1.02,1.44-2.36,2.52-4,3.23-1.65.71-3.65,1.07-6,1.07-1.7,0-3.21-.18-4.54-.53-1.33-.35-2.45-.94-3.35-1.75-.9-.81-1.58-1.83-2.03-3.05-.45-1.22-.68-2.74-.68-4.56,0-2.41.49-4.37,1.46-5.89.97-1.52,2.44-2.64,4.42-3.38,1.97-.73,4.43-1.1,7.38-1.1,2.01,0,3.83.08,5.48.24,1.64.16,2.99.36,4.03.59v3.85c-1.28-.24-2.64-.39-4.08-.47-1.44-.08-2.92-.12-4.44-.12-1.7,0-3.07.18-4.1.53-1.04.36-1.82.92-2.34,1.69-.52.77-.78,1.79-.78,3.05,0,1.07.22,1.96.68,2.69.45.73,1.13,1.28,2.05,1.66.92.38,2.12.56,3.61.56,1.35,0,2.57-.2,3.66-.59,1.09-.39,2.02-.99,2.78-1.78.76-.79,1.33-1.73,1.71-2.81.38-1.09.57-2.28.57-3.58v-2.96c0-1.03,0-2.01.03-2.96s.03-1.85.03-2.72c0-1.1-.12-2.08-.36-2.93-.24-.85-.65-1.56-1.22-2.13-.57-.57-1.31-1-2.21-1.27-.9-.28-2.03-.41-3.38-.41s-2.48.15-3.4.44c-.92.3-1.65.74-2.21,1.33-.55.59-.94,1.34-1.14,2.25-.21.91-.28,2.01-.21,3.32-.45-.04-.95-.06-1.51-.06h-3.01c-.45,0-.9.02-1.35.06-.45.04-.83.08-1.14.12-.1-2.45.12-4.58.68-6.4.55-1.82,1.42-3.32,2.6-4.5,1.18-1.18,2.67-2.05,4.49-2.61,1.82-.55,3.89-.83,6.21-.83,2.63,0,4.87.3,6.73.89,1.85.59,3.34,1.44,4.47,2.55,1.12,1.11,1.95,2.5,2.47,4.17.52,1.68.78,3.6.78,5.77,0,1.5-.02,2.91-.05,4.23-.04,1.32-.07,2.64-.1,3.94-.04,1.3-.05,2.69-.05,4.15,0,1.07.02,2.14.05,3.23.03,1.09.08,2.11.13,3.08.05.97.12,1.83.21,2.58.09.75.2,1.36.34,1.84h-6.03Z"/>
      <path class="st3" d="M609.55,153.42c.03-2.53.06-5.21.08-8.05s.03-6.18.03-10.01,0-6.99-.03-9.71c-.02-2.72-.04-5.37-.08-7.93h6.44c0,1.07-.03,2.23-.08,3.49-.05,1.26-.1,2.63-.13,4.12s-.09,3.09-.16,4.83l-.31-4.86,1.09.18-1.04,4.62c.24-2.33.65-4.29,1.22-5.89s1.31-2.92,2.21-3.97c.9-1.05,1.95-1.81,3.14-2.28,1.19-.47,2.55-.71,4.08-.71.97,0,1.89.09,2.75.27.87.18,1.64.42,2.34.74-.07.4-.15.93-.23,1.6-.09.67-.17,1.37-.26,2.1-.09.73-.16,1.45-.21,2.16-.05.71-.08,1.34-.08,1.9-.73-.36-1.52-.6-2.36-.74-.85-.14-1.76-.21-2.73-.21-1.32,0-2.47.19-3.45.56-.99.38-1.83,1-2.52,1.87-.69.87-1.2,2.01-1.53,3.43-.33,1.42-.49,3.2-.49,5.33v4.59c0,1.56,0,3.11.03,4.65s.03,2.99.05,4.35c.02,1.36.03,2.56.03,3.58h-7.79Z"/>
      <path class="st3" d="M644.58,112.44c-.12.36-.35.68-.67.98-.33.3-.8.52-1.4.68-.61.16-1.39.24-2.36.24s-1.81-.08-2.42-.24c-.61-.16-1.07-.39-1.4-.68s-.56-.62-.7-.98c-.14-.36-.21-.75-.21-1.18s.08-.84.23-1.21c.16-.37.4-.67.73-.89.33-.22.8-.4,1.4-.56.61-.16,1.39-.24,2.36-.24s1.71.08,2.31.24c.61.16,1.08.35,1.43.56.35.22.58.51.7.89.12.38.18.78.18,1.21s-.06.83-.18,1.18ZM636.46,153.42c.03-1.46.06-2.91.08-4.35.02-1.44.03-2.89.03-4.35v-16.08c0-1.95-.02-3.81-.05-5.57-.04-1.76-.05-3.54-.05-5.36h7.32c-.04,1.38-.06,2.73-.08,4.06-.02,1.32-.04,2.66-.05,4.03-.02,1.36-.03,2.81-.03,4.35v10.36c0,1.62,0,3.14.03,4.56.02,1.42.03,2.81.05,4.17.02,1.36.04,2.75.08,4.17h-7.32Z"/>
      <path class="st3" d="M653.1,117.8c1.23.02,2.49.03,3.79.03s2.65.01,4.05.03c1.4.02,2.81.02,4.23,0,1.42-.02,2.83-.04,4.23-.06,1.4-.02,2.76-.05,4.08-.09,0,.71-.02,1.48-.05,2.31-.04.83-.05,1.67-.05,2.52v2.46c-.8-.08-1.66-.12-2.6-.12s-1.91-.02-2.93-.06c-1.02-.04-2.06-.07-3.12-.09-1.06-.02-2.14-.03-3.25-.03h-3.22c-1.04,0-2.06,0-3.06-.03-1-.02-1.97-.03-2.91-.03h-2.6v-6.93c1.04.04,2.17.07,3.4.09ZM655.75,110.31h4.31c.4,0,.81-.04,1.22-.12-.07,2.13-.11,4.35-.13,6.66s-.04,4.73-.08,7.25c-.04,2.53-.06,5.18-.08,7.96-.02,2.78-.03,5.68-.03,8.67,0,1.3.19,2.4.57,3.29s1,1.54,1.84,1.95c.85.41,2,.62,3.45.62,1.21,0,2.35-.13,3.43-.38,1.07-.26,2.06-.58,2.96-.98.03.47.09.97.16,1.48.07.51.13,1.02.18,1.51.05.49.11,1.01.18,1.54.07.53.14,1.03.21,1.48.07.45.12.9.16,1.33-.9.24-1.77.46-2.6.68-.83.22-1.7.37-2.6.47-.9.1-1.9.15-3.01.15-2.22,0-4.09-.3-5.61-.89-1.52-.59-2.77-1.43-3.74-2.52-.97-1.09-1.66-2.37-2.08-3.85-.42-1.48-.62-3.13-.62-4.94v-4.44c0-1.62,0-3.34.03-5.15.02-1.82.03-3.67.03-5.57s0-3.79.03-5.68c.02-1.9.03-3.76.03-5.6v-5.06c.52.08,1.12.12,1.79.12Z"/>
      <path class="st3" d="M684.4,117.71c.14.55.36,1.32.68,2.31.31.99.67,2.07,1.09,3.26.42,1.18.84,2.46,1.27,3.82.43,1.36.86,2.72,1.27,4.09.42,1.36.83,2.66,1.25,3.88.9,2.88,1.61,5.43,2.13,7.64.52,2.21.92,4.01,1.2,5.39l-1.56-2.61h2.34l-1.61,2.49c.21-.91.48-1.97.83-3.2.35-1.22.75-2.64,1.22-4.23.47-1.6,1-3.38,1.58-5.36.48-1.62,1-3.27,1.53-4.94.54-1.68,1.05-3.3,1.53-4.86.48-1.56.95-3.01,1.4-4.35.45-1.34.8-2.45,1.04-3.32h7.64c-.55,1.66-1.23,3.65-2.03,5.98-.8,2.33-1.64,4.77-2.52,7.31-.88,2.55-1.74,5.05-2.57,7.52-.83,2.47-1.6,4.7-2.31,6.69-.71,1.99-1.27,3.58-1.69,4.77-.87,2.25-1.73,4.22-2.6,5.92-.87,1.7-1.84,3.09-2.91,4.17-1.07,1.09-2.31,1.9-3.71,2.46-1.4.55-3.06.83-4.96.83-1.18,0-2.22-.08-3.12-.24-.9-.16-1.75-.37-2.54-.62-.8-.26-1.59-.54-2.39-.86.07-.32.16-.69.29-1.12.12-.44.23-.96.31-1.57.09-.61.2-1.23.34-1.87.14-.63.26-1.18.36-1.66.1-.47.17-.85.21-1.12.52.28,1.04.5,1.56.68s1.05.36,1.58.56c.54.2,1.11.31,1.71.33.61.02,1.24.03,1.9.03.87,0,1.64-.1,2.31-.3.68-.2,1.29-.54,1.84-1.04.55-.49,1.06-1.12,1.51-1.87.45-.75.92-1.7,1.4-2.84.07-.28.13-.53.18-.77s.13-.47.23-.71l1.19,1.3h-3.04c-.43,0-.83.01-1.19.03-.36.02-.63.03-.81.03-.38-.87-.84-2.07-1.38-3.61-.54-1.54-1.16-3.28-1.87-5.21-.71-1.93-1.42-3.96-2.13-6.07-.71-2.11-1.45-4.22-2.23-6.34-.78-2.11-1.51-4.09-2.18-5.92-.67-1.84-1.29-3.46-1.84-4.89h8.26Z"/>
      <path class="st3" d="M295.66,193.17c-.35,1.34-.79,3-1.32,4.97-.54,1.97-1.1,4.15-1.69,6.51-.59,2.37-1.19,4.75-1.82,7.14-.62,2.39-1.21,4.7-1.77,6.93-.55,2.23-1.05,4.22-1.48,5.98-.43,1.76-.77,3.13-1.01,4.12-.52-.04-1.1-.06-1.74-.06h-4.16c-.61,0-1.13.01-1.58.03-.45.02-.81.03-1.09.03-.21-.91-.49-2.11-.83-3.61-.35-1.5-.72-3.18-1.12-5.03-.4-1.86-.81-3.79-1.25-5.8-.43-2.01-.82-4.03-1.17-6.04-.35-1.38-.65-2.67-.91-3.85s-.49-2.31-.7-3.38c-.21-1.07-.38-1.97-.52-2.72l1.4,2.84h-1.97l1.45-2.84c-.1.75-.27,1.67-.49,2.75-.23,1.09-.48,2.25-.75,3.49-.28,1.24-.57,2.52-.88,3.82-.42,1.93-.85,3.89-1.3,5.86-.45,1.97-.88,3.89-1.3,5.74s-.81,3.54-1.19,5.06c-.38,1.52-.68,2.75-.88,3.7-.31,0-.72,0-1.22-.03-.5-.02-1-.03-1.51-.03h-3.87c-.62,0-1.13.02-1.51.06-.31-1.14-.68-2.62-1.12-4.44-.43-1.82-.93-3.83-1.48-6.04-.55-2.21-1.13-4.53-1.71-6.96-.59-2.43-1.14-4.79-1.66-7.08-.52-2.29-1.05-4.39-1.58-6.31-.54-1.91-1-3.52-1.38-4.83h7.79c.1.51.27,1.33.49,2.46.23,1.12.49,2.43.81,3.91.31,1.48.65,3.05,1.01,4.71.36,1.66.73,3.35,1.09,5.06.36,1.72.7,3.33,1.01,4.83.28,1.3.53,2.47.75,3.49.22,1.03.42,1.94.57,2.75.16.81.29,1.53.39,2.16l-.94-1.36h1.66l-1.09,1.36c.17-.91.42-2.08.73-3.52.31-1.44.68-3.07,1.09-4.89.45-1.86.9-3.81,1.35-5.86.45-2.05.89-4.05,1.32-5.98.43-1.93.81-3.73,1.12-5.39.31-1.66.57-2.9.78-3.73h1.66c.31,0,.63.01.96.03.33.02.66.03.99.03h1.79c.35,0,.71,0,1.09-.03.38-.02.74-.03,1.09-.03h.88c.1.79.32,1.97.65,3.55.33,1.58.69,3.36,1.09,5.33.4,1.97.83,4.03,1.3,6.16.47,2.13.91,4.17,1.32,6.1.45,1.86.82,3.47,1.12,4.86.29,1.38.53,2.51.7,3.38l-.93-1.36h1.51l-.94,1.42c.1-.59.23-1.3.39-2.13s.35-1.77.57-2.81c.22-1.05.49-2.16.81-3.35.31-1.54.64-3.14.99-4.8.35-1.66.7-3.31,1.06-4.94.36-1.64.71-3.21,1.04-4.71.33-1.5.61-2.82.86-3.97.24-1.14.4-2.05.47-2.72h6.7Z"/>
      <path class="st3" d="M312.62,187.84c-.12.36-.35.68-.68.98-.33.3-.8.52-1.4.68-.61.16-1.39.24-2.36.24s-1.81-.08-2.42-.24c-.61-.16-1.07-.39-1.4-.68-.33-.3-.56-.62-.7-.98-.14-.36-.21-.75-.21-1.18s.08-.84.23-1.21c.16-.37.4-.67.73-.89.33-.22.8-.4,1.4-.56.61-.16,1.39-.24,2.36-.24s1.71.08,2.31.24c.61.16,1.08.35,1.43.56.35.22.58.51.7.89.12.38.18.78.18,1.21s-.06.83-.18,1.18ZM304.49,228.82c.03-1.46.06-2.91.08-4.35.02-1.44.03-2.89.03-4.35v-16.08c0-1.95-.02-3.81-.05-5.57-.03-1.76-.05-3.54-.05-5.36h7.32c-.04,1.38-.06,2.73-.08,4.06-.02,1.32-.03,2.67-.05,4.03-.02,1.36-.03,2.81-.03,4.35v10.36c0,1.62,0,3.14.03,4.56.02,1.42.03,2.81.05,4.17.02,1.36.04,2.75.08,4.17h-7.32Z"/>
      <path class="st3" d="M325.08,193.2c1.23.02,2.49.03,3.79.03s2.65.01,4.05.03c1.4.02,2.81.02,4.23,0,1.42-.02,2.83-.04,4.23-.06,1.4-.02,2.76-.05,4.08-.09,0,.71-.02,1.48-.05,2.31-.03.83-.05,1.67-.05,2.52v2.46c-.8-.08-1.66-.12-2.6-.12s-1.91-.02-2.94-.06c-1.02-.04-2.06-.07-3.12-.09-1.06-.02-2.14-.03-3.25-.03h-3.22c-1.04,0-2.06,0-3.06-.03-1-.02-1.97-.03-2.91-.03h-2.6v-6.93c1.04.04,2.17.07,3.4.09ZM327.73,185.71h4.31c.4,0,.81-.04,1.22-.12-.07,2.13-.11,4.35-.13,6.66-.02,2.31-.04,4.73-.08,7.25-.03,2.53-.06,5.18-.08,7.96-.02,2.78-.03,5.68-.03,8.68,0,1.3.19,2.4.57,3.29.38.89,1,1.54,1.84,1.95.85.41,2,.62,3.45.62,1.21,0,2.35-.13,3.43-.38,1.07-.26,2.06-.58,2.96-.98.03.47.09.97.16,1.48.07.51.13,1.02.18,1.51.05.49.11,1.01.18,1.54.07.53.14,1.03.21,1.48.07.45.12.9.16,1.33-.9.24-1.77.46-2.6.68-.83.22-1.7.38-2.6.47-.9.1-1.9.15-3.01.15-2.22,0-4.09-.3-5.61-.89-1.52-.59-2.77-1.43-3.74-2.52-.97-1.08-1.66-2.37-2.08-3.85s-.62-3.13-.62-4.94v-4.44c0-1.62,0-3.34.03-5.15.02-1.82.03-3.67.03-5.57s0-3.79.03-5.69c.02-1.89.03-3.76.03-5.6v-5.06c.52.08,1.12.12,1.79.12Z"/>
      <path class="st3" d="M379.23,228.82c.03-1.86.05-3.84.05-5.95s0-4.45.03-7.02c.02-2.57.03-5.31.03-8.23,0-1.93-.23-3.48-.68-4.65-.45-1.16-1.19-2.03-2.23-2.61-1.04-.57-2.41-.86-4.1-.86-1.21,0-2.36.18-3.43.53-1.07.36-2.02.94-2.83,1.75-.81.81-1.44,1.85-1.87,3.11-.43,1.26-.65,2.78-.65,4.56v6.25c0,1.8,0,3.35.03,4.65.02,1.3.02,2.47,0,3.49-.02,1.03,0,1.92.03,2.69.03.77.05,1.53.05,2.28h-7.53c.07-1.82.11-3.64.13-5.48.02-1.84.03-3.84.03-6.01v-13.77c0-1.99,0-3.93-.03-5.8-.02-1.88-.03-3.69-.03-5.45s0-3.42-.03-5c-.02-1.58-.04-3.02-.08-4.32h7.58c-.07,1.89-.1,3.67-.1,5.33v5.15c-.03,1.46-.07,2.82-.1,4.09-.03,1.26-.07,2.78-.1,4.56l-.26-2.84,1.19.18-1.35,2.49c.45-2.17,1.24-3.97,2.36-5.39,1.12-1.42,2.53-2.46,4.21-3.11,1.68-.65,3.63-.98,5.84-.98,2.39,0,4.42.45,6.08,1.36,1.66.91,2.94,2.32,3.82,4.23.88,1.92,1.32,4.31,1.32,7.19,0,1.3-.02,2.47-.05,3.49-.04,1.03-.04,1.99-.03,2.9.02.91,0,1.77-.03,2.58-.03.81-.05,1.65-.05,2.52,0,2.21.03,4.29.08,6.25.05,1.95.1,3.9.13,5.83h-7.43Z"/>
      <path class="st3" d="M442.11,222.39c1.19-.26,2.16-.66,2.88-1.21.73-.55,1.25-1.19,1.58-1.92.33-.73.49-1.55.49-2.46,0-.71-.1-1.4-.29-2.07-.19-.67-.52-1.27-.99-1.81-.47-.53-1.1-1.01-1.9-1.42-.8-.42-1.82-.81-3.06-1.18-1.25-.38-2.75-.68-4.52-.92-2.29-.36-4.29-.8-6.03-1.33-1.73-.53-3.19-1.19-4.36-1.98-1.18-.79-2.12-1.7-2.83-2.72-.71-1.03-1.23-2.17-1.56-3.43-.33-1.26-.49-2.64-.49-4.15,0-1.93.32-3.65.96-5.15.64-1.5,1.61-2.76,2.91-3.79,1.3-1.03,2.93-1.81,4.91-2.37,1.97-.55,4.34-.83,7.12-.83,2.39,0,4.47.14,6.26.41,1.78.28,3.32.72,4.6,1.33,1.28.61,2.31,1.39,3.09,2.34.78.95,1.36,2.12,1.74,3.52.38,1.4.57,3.03.57,4.89,0,.32,0,.62-.03.92-.02.3-.03.61-.03.95s-.02.66-.05.98c-.24-.04-.55-.06-.94-.06h-2.49c-.62,0-1.26.01-1.92.03-.66.02-1.19.03-1.61.03,0-.36.02-.7.05-1.04.03-.33.05-.64.05-.92,0-1.07-.18-2.03-.55-2.9-.36-.87-.93-1.58-1.69-2.13-.76-.55-1.73-.96-2.91-1.21-1.18-.26-2.62-.38-4.31-.38-1.59,0-2.93.12-4.03.36-1.09.24-1.96.58-2.6,1.04-.64.45-1.12,1.03-1.43,1.72-.31.69-.47,1.47-.47,2.34,0,.63.07,1.22.21,1.78.14.55.41,1.1.8,1.63.4.53,1,1.04,1.79,1.51.8.47,1.83.9,3.12,1.27,1.28.38,2.87.68,4.78.92,2.74.43,5.06,1.03,6.99,1.78s3.48,1.68,4.67,2.78c1.2,1.11,2.06,2.4,2.6,3.88.54,1.48.8,3.19.8,5.12,0,1.66-.21,3.17-.62,4.53-.42,1.36-1.03,2.58-1.84,3.64-.81,1.07-1.86,1.97-3.14,2.72-1.28.75-2.8,1.3-4.54,1.66-1.75.35-3.78.53-6.1.53-2.49,0-4.67-.18-6.54-.53-1.87-.36-3.5-.88-4.88-1.57-1.39-.69-2.49-1.56-3.32-2.61s-1.44-2.25-1.82-3.61c-.38-1.36-.57-2.89-.57-4.59v-.95c0-.32,0-.62.03-.92s.06-.62.13-.98c.42.12.93.19,1.53.21.61.02,1.25.03,1.95.03s1.36,0,2-.03c.64-.02,1.2-.03,1.69-.03v1.12c0,1.74.32,3.17.96,4.29.64,1.12,1.69,1.96,3.14,2.52,1.45.55,3.34.83,5.66.83,1.73,0,3.19-.13,4.39-.38Z"/>
      <path class="st3" d="M465.69,193.2c1.23.02,2.49.03,3.79.03s2.65.01,4.05.03c1.4.02,2.81.02,4.23,0,1.42-.02,2.83-.04,4.23-.06,1.4-.02,2.76-.05,4.08-.09,0,.71-.02,1.48-.05,2.31-.04.83-.05,1.67-.05,2.52v2.46c-.8-.08-1.66-.12-2.6-.12s-1.91-.02-2.93-.06c-1.02-.04-2.06-.07-3.12-.09-1.06-.02-2.14-.03-3.25-.03h-3.22c-1.04,0-2.06,0-3.06-.03-1-.02-1.97-.03-2.91-.03h-2.6v-6.93c1.04.04,2.17.07,3.4.09ZM468.34,185.71h4.31c.4,0,.81-.04,1.22-.12-.07,2.13-.11,4.35-.13,6.66s-.04,4.73-.08,7.25c-.04,2.53-.06,5.18-.08,7.96-.02,2.78-.03,5.68-.03,8.68,0,1.3.19,2.4.57,3.29s1,1.54,1.84,1.95c.85.41,2,.62,3.45.62,1.21,0,2.35-.13,3.43-.38s2.06-.58,2.96-.98c.03.47.09.97.16,1.48.07.51.13,1.02.18,1.51.05.49.11,1.01.18,1.54s.14,1.03.21,1.48c.07.45.12.9.16,1.33-.9.24-1.77.46-2.6.68-.83.22-1.7.38-2.6.47-.9.1-1.9.15-3.01.15-2.22,0-4.09-.3-5.61-.89-1.52-.59-2.77-1.43-3.74-2.52-.97-1.08-1.66-2.37-2.08-3.85-.42-1.48-.62-3.13-.62-4.94v-4.44c0-1.62,0-3.34.03-5.15.02-1.82.03-3.67.03-5.57s0-3.79.03-5.69c.02-1.89.03-3.76.03-5.6v-5.06c.52.08,1.12.12,1.79.12Z"/>
      <path class="st3" d="M496.73,228.82c.03-2.53.06-5.21.08-8.05.02-2.84.03-6.18.03-10.01s0-6.99-.03-9.71-.04-5.37-.08-7.93h6.44c0,1.07-.03,2.23-.08,3.49-.05,1.26-.1,2.64-.13,4.12s-.09,3.09-.16,4.83l-.31-4.86,1.09.18-1.04,4.62c.24-2.33.65-4.29,1.22-5.89.57-1.6,1.31-2.92,2.21-3.97.9-1.05,1.95-1.81,3.14-2.28,1.19-.47,2.55-.71,4.08-.71.97,0,1.89.09,2.75.27.87.18,1.64.42,2.34.74-.07.4-.15.93-.23,1.6-.09.67-.17,1.37-.26,2.1-.09.73-.16,1.45-.21,2.16-.05.71-.08,1.34-.08,1.89-.73-.36-1.52-.6-2.36-.74-.85-.14-1.76-.21-2.73-.21-1.32,0-2.47.19-3.45.56s-1.83,1-2.52,1.87c-.69.87-1.2,2.01-1.53,3.43s-.49,3.2-.49,5.33v4.59c0,1.56,0,3.11.03,4.65.02,1.54.03,2.99.05,4.35.02,1.36.03,2.56.03,3.58h-7.79Z"/>
      <path class="st3" d="M535.82,228.85c-1.65-.45-3.1-1.16-4.36-2.13-1.26-.97-2.36-2.21-3.27-3.73-.92-1.52-1.62-3.27-2.1-5.24-.49-1.97-.73-4.22-.73-6.75,0-3.24.37-6.03,1.12-8.38.74-2.35,1.81-4.28,3.2-5.8,1.38-1.52,3.06-2.65,5.04-3.4,1.97-.75,4.19-1.12,6.65-1.12,1.97,0,3.72.24,5.25.71,1.52.47,2.83,1.15,3.92,2.01,1.09.87,1.97,1.92,2.65,3.17.68,1.24,1.16,2.62,1.46,4.12.29,1.5.44,3.12.44,4.86,0,.79,0,1.55-.03,2.28-.02.73-.04,1.38-.05,1.95-.02.57-.04,1.14-.08,1.69-.62,0-1.37,0-2.23-.03-.87-.02-1.84-.03-2.93-.03h-15.22c-1.23,0-2.31-.02-3.25-.06l.21-4.38h6.26c1.12,0,2.27,0,3.43.03,1.16.02,2.27.02,3.32,0,1.06-.02,2.04-.04,2.96-.06.92-.02,1.67-.05,2.26-.09l-1.45,1.6c.07-.32.14-.76.21-1.33.07-.57.1-1.25.1-2.04,0-1.86-.26-3.4-.78-4.62s-1.35-2.15-2.49-2.78c-1.14-.63-2.56-.95-4.26-.95-1.45,0-2.74.24-3.84.71-1.11.47-2.03,1.21-2.78,2.22-.75,1.01-1.31,2.35-1.69,4.03-.38,1.68-.57,3.74-.57,6.19,0,2.13.19,3.98.57,5.54.38,1.56.95,2.8,1.71,3.73.76.93,1.71,1.62,2.83,2.07,1.12.46,2.45.68,3.97.68,1.11,0,2.09-.1,2.93-.3.85-.2,1.56-.47,2.13-.83.57-.36,1.01-.79,1.33-1.3.31-.51.54-1.1.7-1.75.16-.65.23-1.39.23-2.22.31.04.63.08.96.12.33.04.69.06,1.09.06h1.22c.66,0,1.25-.02,1.79-.06.54-.04,1-.08,1.38-.12.03,1.22-.03,2.38-.18,3.46-.16,1.09-.42,2.08-.8,2.99-.38.91-.92,1.74-1.61,2.49-.69.75-1.54,1.4-2.54,1.95-1,.55-2.23.95-3.69,1.18-1.45.24-3.12.36-4.99.36s-3.73-.23-5.38-.68Z"/>
      <path class="st3" d="M589.6,228.82c0-1.78,0-3.72.03-5.83.02-2.11.03-4.44.05-6.99.02-2.55.03-5.28.03-8.2,0-1.93-.23-3.51-.7-4.74-.47-1.22-1.2-2.13-2.21-2.72-1-.59-2.36-.89-4.05-.89-1.25,0-2.4.2-3.45.59-1.06.4-1.99.98-2.8,1.75-.81.77-1.45,1.76-1.9,2.96-.45,1.21-.67,2.66-.67,4.35v6.28c0,1.82,0,3.4.03,4.74.02,1.34.03,2.55.03,3.61s0,1.99.03,2.78c.02.79.03,1.56.03,2.31h-7.48c.07-1.58.11-3.23.13-4.94.02-1.72.03-3.56.03-5.54v-6.93c0-3.87,0-7.28-.03-10.25-.02-2.96-.06-5.64-.13-8.05h7.53c0,1.03,0,1.99-.03,2.9-.02.91-.05,1.85-.1,2.81-.05.97-.1,2.04-.13,3.23l-.21-2.9,1.14.24-1.35,2.55c.48-2.17,1.28-3.95,2.39-5.33,1.11-1.38,2.49-2.41,4.16-3.08,1.66-.67,3.6-1.01,5.82-1.01,2.42,0,4.48.47,6.16,1.42,1.68.95,2.94,2.42,3.79,4.41.85,1.99,1.27,4.53,1.27,7.61,0,1.38,0,2.58-.03,3.58-.02,1.01-.03,1.92-.03,2.75s0,1.62-.03,2.37-.03,1.56-.03,2.43c0,2.17.02,4.2.05,6.1.03,1.9.07,3.77.1,5.63h-7.43Z"/>
      <path class="st3" d="M617.65,215.37c-.45.47-.81.94-1.07,1.39-.26.46-.46.91-.6,1.36-.14.45-.21.88-.21,1.27,0,.63.21,1.11.62,1.42.42.32,1.04.47,1.87.47,1.66,0,3.25-.05,4.78-.15,1.52-.1,2.95-.2,4.29-.3,1.33-.1,2.57-.15,3.71-.15,2.01,0,3.69.28,5.04.83,1.35.55,2.35,1.39,3.01,2.52.66,1.12.99,2.62.99,4.47,0,.95-.11,1.84-.34,2.69-.23.85-.6,1.63-1.12,2.34s-1.22,1.33-2.1,1.87c-.88.53-1.95.99-3.2,1.36-1.25.37-2.73.66-4.44.86-1.71.2-3.7.3-5.95.3-2.8,0-5.16-.1-7.06-.3-1.9-.2-3.46-.48-4.67-.86-1.21-.38-2.13-.82-2.75-1.33s-1.04-1.08-1.25-1.69c-.21-.61-.31-1.29-.31-2.04,0-.83.16-1.56.47-2.19.31-.63.78-1.2,1.4-1.72.62-.51,1.4-.94,2.34-1.27.93-.33,2.01-.6,3.22-.8l2.18-.24c-.94.67-1.67,1.28-2.21,1.84-.54.55-.8,1.15-.8,1.78,0,.47.09.89.26,1.24.17.35.48.66.91.92s1.01.48,1.74.68c.73.2,1.64.34,2.75.44,1.11.1,2.42.15,3.95.15,1.9,0,3.5-.09,4.78-.27s2.34-.43,3.17-.77c.83-.34,1.44-.74,1.82-1.21.38-.47.57-1.05.57-1.72,0-.59-.12-1.04-.36-1.36-.24-.32-.65-.55-1.22-.71-.57-.16-1.38-.24-2.42-.24-.93,0-1.95,0-3.04.03-1.09.02-2.21.06-3.35.12-1.14.06-2.23.11-3.25.15-1.02.04-1.97.06-2.83.06-1.52,0-2.8-.11-3.82-.33-1.02-.22-1.84-.54-2.44-.98-.61-.43-1.03-.97-1.27-1.6-.24-.63-.36-1.26-.36-1.89,0-1.18.31-2.22.94-3.11.62-.89,1.44-1.65,2.44-2.28,1-.63,2.08-1.12,3.22-1.48l1.97.41ZM609.26,200.07c.61-1.52,1.51-2.8,2.73-3.85,1.21-1.05,2.71-1.83,4.49-2.34,1.78-.51,3.85-.77,6.21-.77h1.61c.83,0,1.86,0,3.09-.03,1.23-.02,2.57-.02,4.03,0,1.46.02,2.94.04,4.47.06,1.52.02,2.98.03,4.36.03v6.28c-.55,0-1.22,0-2-.03s-1.62-.06-2.52-.12c-.9-.06-1.84-.11-2.8-.15-.97-.04-1.91-.1-2.8-.18-.9-.08-1.73-.14-2.49-.18-.76-.04-1.45-.08-2.08-.12l.57-.3c1.66.16,3.12.4,4.39.71,1.26.32,2.32.71,3.17,1.18s1.54,1.03,2.08,1.66c.54.63.93,1.34,1.19,2.13s.39,1.76.39,2.9c0,.99-.13,1.91-.39,2.75-.26.85-.62,1.64-1.09,2.37s-1.1,1.39-1.9,1.98c-.8.59-1.75,1.09-2.86,1.48-1.11.4-2.36.69-3.74.89-1.39.2-2.94.3-4.68.3-2.56,0-4.74-.26-6.54-.77-1.8-.51-3.27-1.26-4.42-2.25s-1.99-2.2-2.54-3.64c-.55-1.44-.83-3.07-.83-4.88s.3-3.6.91-5.12ZM612.3,225.74h1.51v1.07h-1.51v-1.07ZM614.38,214.07h1.45l.05,1.9h-1.51v-1.9ZM630.2,201.93c-.57-.95-1.47-1.7-2.7-2.25-1.23-.55-2.78-.83-4.65-.83-1.97,0-3.55.29-4.73.86-1.18.57-2.04,1.32-2.6,2.25-.55.93-.83,2-.83,3.23s.28,2.27.83,3.14c.55.87,1.43,1.56,2.62,2.07,1.2.51,2.76.77,4.7.77s3.46-.24,4.67-.71c1.21-.47,2.1-1.16,2.67-2.07.57-.91.86-1.97.86-3.2s-.29-2.31-.86-3.26ZM628.87,198.38h2.86v1.48l-2.86-.12v-1.36Z"/>
      <path class="st3" d="M650.77,193.2c1.23.02,2.49.03,3.79.03s2.65.01,4.05.03c1.4.02,2.81.02,4.23,0,1.42-.02,2.83-.04,4.23-.06,1.4-.02,2.76-.05,4.08-.09,0,.71-.02,1.48-.05,2.31-.04.83-.05,1.67-.05,2.52v2.46c-.8-.08-1.66-.12-2.6-.12s-1.91-.02-2.93-.06c-1.02-.04-2.06-.07-3.12-.09-1.06-.02-2.14-.03-3.25-.03h-3.22c-1.04,0-2.06,0-3.06-.03-1-.02-1.97-.03-2.91-.03h-2.6v-6.93c1.04.04,2.17.07,3.4.09ZM653.42,185.71h4.31c.4,0,.81-.04,1.22-.12-.07,2.13-.11,4.35-.13,6.66s-.04,4.73-.08,7.25c-.04,2.53-.06,5.18-.08,7.96-.02,2.78-.03,5.68-.03,8.68,0,1.3.19,2.4.57,3.29s1,1.54,1.84,1.95c.85.41,2,.62,3.45.62,1.21,0,2.35-.13,3.43-.38s2.06-.58,2.96-.98c.03.47.09.97.16,1.48.07.51.13,1.02.18,1.51.05.49.11,1.01.18,1.54s.14,1.03.21,1.48c.07.45.12.9.16,1.33-.9.24-1.77.46-2.6.68-.83.22-1.7.38-2.6.47-.9.1-1.9.15-3.01.15-2.22,0-4.09-.3-5.61-.89-1.52-.59-2.77-1.43-3.74-2.52-.97-1.08-1.66-2.37-2.08-3.85-.42-1.48-.62-3.13-.62-4.94v-4.44c0-1.62,0-3.34.03-5.15.02-1.82.03-3.67.03-5.57s0-3.79.03-5.69c.02-1.89.03-3.76.03-5.6v-5.06c.52.08,1.12.12,1.79.12Z"/>
      <path class="st3" d="M704.92,228.82c.03-1.86.05-3.84.05-5.95s0-4.45.03-7.02c.02-2.57.03-5.31.03-8.23,0-1.93-.23-3.48-.68-4.65-.45-1.16-1.19-2.03-2.23-2.61s-2.41-.86-4.1-.86c-1.21,0-2.36.18-3.43.53s-2.02.94-2.83,1.75c-.81.81-1.44,1.85-1.87,3.11-.43,1.26-.65,2.78-.65,4.56v6.25c0,1.8,0,3.35.03,4.65s.02,2.47,0,3.49c-.02,1.03,0,1.92.03,2.69.03.77.05,1.53.05,2.28h-7.53c.07-1.82.11-3.64.13-5.48.02-1.84.03-3.84.03-6.01v-13.77c0-1.99,0-3.93-.03-5.8-.02-1.88-.03-3.69-.03-5.45s0-3.42-.03-5c-.02-1.58-.04-3.02-.08-4.32h7.58c-.07,1.89-.1,3.67-.1,5.33v5.15c-.04,1.46-.07,2.82-.1,4.09-.04,1.26-.07,2.78-.1,4.56l-.26-2.84,1.2.18-1.35,2.49c.45-2.17,1.24-3.97,2.36-5.39,1.12-1.42,2.53-2.46,4.21-3.11s3.63-.98,5.84-.98c2.39,0,4.42.45,6.08,1.36,1.66.91,2.93,2.32,3.82,4.23.88,1.92,1.32,4.31,1.32,7.19,0,1.3-.02,2.47-.05,3.49-.03,1.03-.04,1.99-.03,2.9.02.91,0,1.77-.03,2.58-.04.81-.05,1.65-.05,2.52,0,2.21.03,4.29.08,6.25.05,1.95.09,3.9.13,5.83h-7.43Z"/>
    </g>
    <g>
      <path class="st0" d="M264.9,261.59c1.33,0,2.48.14,3.47.41s1.82.68,2.52,1.24,1.23,1.25,1.61,2.1c.38.84.57,1.85.57,3.02,0,1.05-.16,1.97-.48,2.78-.32.8-.8,1.48-1.45,2.02-.64.54-1.45.96-2.43,1.27-.98.3-2.14.46-3.48.48l2.29-.72v1l-2.29-.6c1.25.1,2.28.22,3.09.35.81.13,1.49.35,2.04.66s1,.77,1.37,1.39.73,1.44,1.07,2.49c.28.74.52,1.42.72,2.02.2.6.39,1.14.57,1.6.18.46.33.84.45,1.15h-2.87c-.22,0-.39-.04-.51-.14s-.23-.25-.33-.47c-.1-.22-.2-.56-.3-1.03-.34-1.13-.65-2.08-.94-2.88-.28-.79-.56-1.45-.83-1.98-.27-.52-.58-.93-.93-1.24-.35-.3-.77-.51-1.27-.63-.49-.12-1.09-.18-1.79-.18h-1.28c-.39,0-.79,0-1.21-.01-.41-.01-.84-.01-1.28,0-.44,0-.92,0-1.45,0-.52-.01-1.11,0-1.75.01l-.03-2.47c.18.02.5.04.95.04.45.01,1,.02,1.63.03.63,0,1.33,0,2.08,0s1.55-.02,2.4-.02c1.17,0,2.13-.19,2.9-.56s1.34-.91,1.72-1.6c.38-.69.57-1.48.57-2.37s-.11-1.59-.32-2.17c-.21-.58-.55-1.06-1.01-1.42-.46-.36-1.06-.63-1.78-.8-.72-.17-1.59-.26-2.59-.26-.26,0-.58,0-.95.01-.37.01-.79.02-1.25.02s-.93,0-1.4.03c-.47.02-.92.04-1.34.04-.42.01-.82.01-1.19.01s-.66.01-.86.03l.75-1.42c-.02,2.11-.04,4.2-.05,6.27-.01,2.07,0,4.06.02,5.96s.05,3.63.09,5.19c.04,1.56.1,2.88.18,3.97h-3.32c0-1.09,0-2.19.03-3.32.02-1.13.03-2.34.04-3.63,0-1.3.02-2.75.02-4.36,0-2.39-.01-4.47-.03-6.23-.02-1.76-.04-3.45-.06-5.08h9.89Z"/>
      <path class="st0" d="M306.91,284.21c-.16,0-.29,0-.39-.03-.1-.02-.19-.06-.26-.14-.07-.07-.12-.17-.14-.29-.02-.12-.03-.28-.03-.48,0-.34,0-.73.02-1.16,0-.43.02-.88.05-1.33.02-.45.04-.86.06-1.22l.24,1.12-.75-.06.6-1.15c-.18,1.11-.59,2.04-1.24,2.79-.64.75-1.49,1.32-2.55,1.69-1.06.37-2.32.56-3.79.56-1.01,0-1.9-.1-2.68-.3s-1.45-.5-1.99-.91c-.54-.4-.95-.91-1.22-1.54-.27-.62-.41-1.39-.41-2.29,0-1.19.28-2.16.83-2.92.55-.76,1.39-1.34,2.5-1.72,1.12-.38,2.53-.57,4.24-.57,1.41,0,2.66.06,3.75.17,1.1.11,1.98.25,2.64.41v1.42c-.86-.16-1.81-.27-2.82-.33-1.02-.06-2.08-.09-3.18-.09-1.17,0-2.13.12-2.88.35-.75.23-1.32.59-1.69,1.07-.37.48-.56,1.11-.56,1.87,0,.68.17,1.27.5,1.75s.83.84,1.49,1.07c.66.23,1.51.35,2.53.35s1.93-.12,2.71-.35c.78-.23,1.44-.58,1.98-1.04.53-.46.93-1.01,1.19-1.64.26-.63.39-1.32.39-2.07,0-.54.01-1.1.03-1.67s.04-1.13.05-1.67c0-.54.02-1,.02-1.39,0-.68-.1-1.3-.3-1.85-.2-.55-.5-1-.9-1.34-.4-.34-.94-.6-1.6-.78-.66-.18-1.47-.27-2.41-.27s-1.74.09-2.4.27c-.65.18-1.18.46-1.58.84-.4.38-.69.85-.86,1.4s-.24,1.21-.2,1.98h-1.85c-.17,0-.35,0-.53.01-.18.01-.34.01-.48.01-.04-1.15.09-2.15.39-3.02.3-.86.78-1.6,1.45-2.2.66-.6,1.5-1.05,2.52-1.34,1.02-.29,2.2-.44,3.54-.44,1.49,0,2.75.15,3.79.45,1.04.3,1.87.73,2.5,1.28.63.55,1.09,1.24,1.37,2.07.28.82.42,1.75.42,2.77,0,.76-.01,1.49-.03,2.19-.02.69-.04,1.37-.05,2.04-.01.66-.02,1.38-.02,2.14,0,.56.02,1.12.05,1.66s.06,1.06.08,1.55c.02.49.06.95.12,1.36.06.41.12.74.18.98h-2.44Z"/>
      <path class="st0" d="M339.09,282.02c.66-.11,1.2-.29,1.61-.54.41-.25.72-.56.92-.92.2-.36.3-.78.3-1.27s-.08-.87-.24-1.22c-.16-.35-.45-.65-.88-.9-.42-.25-1.03-.47-1.82-.66-.79-.19-1.84-.34-3.12-.44-1.49-.18-2.71-.41-3.68-.69-.96-.28-1.72-.65-2.28-1.1-.55-.45-.95-.97-1.18-1.57-.23-.59-.35-1.25-.35-1.98,0-.84.18-1.58.54-2.22.36-.63.88-1.17,1.54-1.6.66-.43,1.49-.75,2.49-.96,1-.21,2.16-.32,3.48-.32,1.07,0,2.03.07,2.88.21.85.14,1.59.36,2.2.65.61.29,1.13.64,1.55,1.06s.73.9.92,1.48c.19.57.29,1.21.29,1.92v.75c0,.12-.02.26-.06.42-.08,0-.2,0-.36-.02-.16,0-.33-.01-.5-.01h-1.25c-.22,0-.41.01-.57.03,0-.16,0-.33.02-.5,0-.17.02-.3.02-.38,0-.54-.1-1.02-.29-1.43-.19-.41-.49-.75-.9-1.03-.41-.27-.94-.47-1.58-.6-.64-.13-1.44-.2-2.38-.2-.86,0-1.63.05-2.31.15s-1.22.28-1.63.53c-.41.25-.72.54-.94.86-.21.32-.32.72-.32,1.21,0,.42.07.79.21,1.12.14.32.42.62.83.9.41.28,1.01.51,1.79.68.78.17,1.81.33,3.08.47,1.47.14,2.69.35,3.68.62s1.76.63,2.34,1.09c.57.45.98.98,1.22,1.58.24.6.36,1.31.36,2.11,0,.86-.17,1.63-.5,2.31s-.83,1.23-1.49,1.67c-.66.44-1.49.77-2.49.98-1,.21-2.2.32-3.6.32-1.23,0-2.3-.08-3.21-.23-.92-.15-1.71-.37-2.38-.66-.67-.29-1.23-.67-1.66-1.13-.43-.46-.75-.98-.95-1.55-.2-.57-.3-1.25-.3-2.04,0-.1,0-.2.02-.29s.02-.19.02-.29v-.39c.12.02.26.04.41.04.15.01.32.02.5.02h1.27c.24,0,.43-.02.57-.06-.02.16-.03.3-.03.42v.27c0,.64.12,1.2.35,1.66.23.46.58.82,1.06,1.09.47.26,1.08.45,1.81.57.73.12,1.58.18,2.55.18s1.78-.06,2.44-.17Z"/>
      <path class="st0" d="M403.66,284.21c-.16,0-.29,0-.39-.03-.1-.02-.19-.06-.26-.14-.07-.07-.12-.17-.14-.29-.02-.12-.03-.28-.03-.48,0-.34,0-.73.02-1.16,0-.43.03-.88.04-1.33.02-.45.04-.86.06-1.22l.24,1.12-.75-.06.6-1.15c-.18,1.11-.59,2.04-1.24,2.79-.64.75-1.49,1.32-2.55,1.69-1.05.37-2.32.56-3.79.56-1.01,0-1.9-.1-2.68-.3-.78-.2-1.45-.5-1.99-.91-.54-.4-.95-.91-1.22-1.54-.27-.62-.41-1.39-.41-2.29,0-1.19.28-2.16.83-2.92.55-.76,1.39-1.34,2.5-1.72,1.12-.38,2.53-.57,4.24-.57,1.41,0,2.66.06,3.75.17,1.1.11,1.98.25,2.64.41v1.42c-.86-.16-1.8-.27-2.82-.33-1.02-.06-2.08-.09-3.18-.09-1.17,0-2.13.12-2.88.35s-1.32.59-1.69,1.07c-.37.48-.56,1.11-.56,1.87,0,.68.17,1.27.5,1.75.33.48.83.84,1.49,1.07.66.23,1.51.35,2.53.35s1.93-.12,2.71-.35c.79-.23,1.44-.58,1.98-1.04s.93-1.01,1.19-1.64c.26-.63.39-1.32.39-2.07,0-.54,0-1.1.03-1.67s.04-1.13.04-1.67.02-1,.02-1.39c0-.68-.1-1.3-.3-1.85-.2-.55-.5-1-.91-1.34s-.93-.6-1.6-.78-1.47-.27-2.41-.27-1.75.09-2.4.27c-.65.18-1.18.46-1.58.84s-.69.85-.86,1.4-.24,1.21-.2,1.98h-1.86c-.17,0-.35,0-.53.01-.18.01-.34.01-.48.01-.04-1.15.09-2.15.39-3.02.3-.86.78-1.6,1.45-2.2.66-.6,1.5-1.05,2.52-1.34,1.02-.29,2.2-.44,3.54-.44,1.49,0,2.75.15,3.78.45,1.04.3,1.87.73,2.5,1.28.63.55,1.09,1.24,1.37,2.07.28.82.42,1.75.42,2.77,0,.76,0,1.49-.03,2.19-.02.69-.04,1.37-.04,2.04,0,.66-.01,1.38-.01,2.14,0,.56.01,1.12.04,1.66.03.54.05,1.06.07,1.55.02.49.06.95.12,1.36.06.41.12.74.18.98h-2.44Z"/>
      <path class="st0" d="M425.86,284.21c.04-.92.06-1.86.06-2.8s0-1.9.02-2.87c0-.96.01-1.93.01-2.91v-9.21c0-.91,0-1.81-.03-2.71-.02-.9-.04-1.85-.06-2.83h3.11c-.04.95-.07,1.87-.08,2.78,0,.9-.01,1.82-.01,2.74v12.27c0,.95,0,1.87.01,2.78,0,.9.03,1.83.05,2.77h-3.08Z"/>
      <path class="st0" d="M455.28,272.78c.65,0,1.3,0,1.93-.01.63,0,1.23-.02,1.79-.03.56,0,1.02-.02,1.36-.02,0,.18,0,.39-.01.62-.01.23-.02.46-.02.68,0,.26,0,.5.02.72,0,.22.01.44.01.66-.34,0-.79,0-1.36-.01-.56-.01-1.16-.02-1.79-.03-.63,0-1.27-.02-1.92-.02h-3.44c-.64,0-1.28,0-1.92.02s-1.22.02-1.76.03c-.54,0-1,.01-1.36.01,0-.22,0-.44.01-.66,0-.22.01-.46.01-.72,0-.22,0-.45-.01-.68-.01-.23-.01-.44-.01-.62.36,0,.81,0,1.36.02s1.13.02,1.76.03,1.27.01,1.9.01h3.44Z"/>
      <path class="st0" d="M478.25,284.21c0-.95.01-1.89.03-2.83.02-.95.03-1.89.03-2.85v-9.23c0-1,0-1.96-.01-2.9-.01-.93-.02-1.85-.02-2.76s0-1.83-.03-2.78h3.08c-.02.95-.04,1.87-.06,2.76-.02.89-.03,1.8-.03,2.73v12.3c0,.93,0,1.85.01,2.76,0,.92.03,1.84.05,2.79h-3.05ZM491.79,284.21c-.3,0-.55-.03-.75-.09-.2-.06-.38-.17-.54-.33-.58-.48-1.21-1.02-1.88-1.61-.67-.59-1.38-1.2-2.11-1.81-.73-.61-1.46-1.22-2.17-1.81-.71-.59-1.38-1.13-1.99-1.61s-1.15-.88-1.61-1.18l1.51.48h-1.39v-1.3h1.06v.69l-1.3.03c.36-.3.71-.6,1.06-.9.34-.3.7-.61,1.09-.94.38-.32.74-.63,1.07-.93.33-.3.64-.59.92-.88,1.37-1.25,2.57-2.35,3.6-3.3,1.04-.95,1.92-1.83,2.67-2.64h3.8c-.6.48-1.26,1.05-1.96,1.7-.7.65-1.44,1.34-2.2,2.05-.76.71-1.53,1.43-2.31,2.16-.77.72-1.54,1.41-2.29,2.07s-1.48,1.23-2.19,1.73l.15-.75v.88l-.24-.96c.54.42,1.14.89,1.79,1.4.65.51,1.34,1.07,2.07,1.66.72.59,1.45,1.19,2.19,1.78.73.59,1.43,1.17,2.1,1.72.66.55,1.27,1.06,1.82,1.52.55.46,1.01.85,1.37,1.18h-3.32Z"/>
      <path class="st0" d="M526.98,284.21c.02-.99.03-2.03.03-3.12s0-2.31.01-3.63.02-2.79.02-4.4c0-1.07-.17-1.94-.5-2.62-.33-.68-.86-1.21-1.6-1.57-.73-.36-1.67-.54-2.82-.54-.84,0-1.64.11-2.38.33-.74.22-1.4.56-1.98,1.01s-1.02,1.03-1.33,1.72-.47,1.53-.47,2.52v3.33c0,.96,0,1.78.02,2.49,0,.7,0,1.33,0,1.87-.01.54,0,1.02.01,1.43.02.41.03.81.03,1.19h-3.11c.02-.91.04-1.82.05-2.76,0-.93.02-1.96.04-3.09.02-1.13.03-2.43.03-3.92,0-1.11,0-2.18-.02-3.21s-.03-2.03-.04-2.97c-.02-.95-.03-1.86-.03-2.73s0-1.7-.01-2.49c-.01-.78-.02-1.51-.02-2.17h3.11c-.02.97-.04,1.88-.04,2.76-.01.88-.02,1.79-.02,2.73,0,.78,0,1.51-.03,2.19-.02.67-.03,1.47-.03,2.4l-.18-1.45.66.09-.72,1.21c.26-1.11.74-2.04,1.43-2.79.69-.75,1.56-1.31,2.59-1.67,1.04-.36,2.22-.54,3.54-.54,1.45,0,2.67.25,3.68.74,1,.49,1.76,1.23,2.28,2.22s.77,2.17.77,3.56v1.84c0,.52,0,1-.01,1.43-.01.43-.02.85-.02,1.27v1.22c0,1.15,0,2.21.02,3.18,0,.98.04,1.97.08,2.97h-3.05Z"/>
      <path class="st0" d="M563.54,284.21c-.16,0-.29,0-.39-.03-.1-.02-.19-.06-.26-.14-.07-.07-.12-.17-.14-.29-.02-.12-.03-.28-.03-.48,0-.34,0-.73.01-1.16,0-.43.03-.88.04-1.33.02-.45.04-.86.06-1.22l.24,1.12-.75-.06.6-1.15c-.18,1.11-.59,2.04-1.24,2.79-.64.75-1.49,1.32-2.55,1.69-1.06.37-2.32.56-3.79.56-1.01,0-1.9-.1-2.68-.3s-1.45-.5-1.99-.91c-.54-.4-.95-.91-1.22-1.54-.27-.62-.41-1.39-.41-2.29,0-1.19.28-2.16.83-2.92.55-.76,1.39-1.34,2.5-1.72,1.12-.38,2.53-.57,4.24-.57,1.41,0,2.66.06,3.75.17,1.1.11,1.98.25,2.64.41v1.42c-.86-.16-1.8-.27-2.82-.33-1.02-.06-2.08-.09-3.18-.09-1.17,0-2.13.12-2.88.35s-1.32.59-1.69,1.07-.56,1.11-.56,1.87c0,.68.17,1.27.5,1.75s.83.84,1.49,1.07c.66.23,1.51.35,2.53.35s1.93-.12,2.71-.35c.78-.23,1.44-.58,1.98-1.04.53-.46.93-1.01,1.19-1.64.26-.63.39-1.32.39-2.07,0-.54,0-1.1.03-1.67.02-.57.03-1.13.04-1.67,0-.54.01-1,.01-1.39,0-.68-.1-1.3-.3-1.85-.2-.55-.5-1-.91-1.34s-.93-.6-1.6-.78c-.66-.18-1.47-.27-2.41-.27s-1.75.09-2.4.27-1.18.46-1.58.84-.69.85-.86,1.4c-.17.55-.24,1.21-.2,1.98h-1.85c-.17,0-.35,0-.53.01-.18.01-.34.01-.48.01-.04-1.15.09-2.15.39-3.02.3-.86.78-1.6,1.45-2.2.66-.6,1.5-1.05,2.52-1.34,1.01-.29,2.2-.44,3.54-.44,1.49,0,2.75.15,3.78.45,1.04.3,1.87.73,2.5,1.28.63.55,1.09,1.24,1.37,2.07.28.82.42,1.75.42,2.77,0,.76,0,1.49-.03,2.19-.02.69-.04,1.37-.04,2.04-.01.66-.01,1.38-.01,2.14,0,.56.01,1.12.04,1.66s.05,1.06.08,1.55c.02.49.06.95.12,1.36.06.41.12.74.18.98h-2.44Z"/>
      <path class="st0" d="M589.61,263.23c-.07.17-.18.32-.33.45-.15.13-.36.23-.63.29s-.63.09-1.07.09-.77-.03-1.06-.09c-.28-.06-.5-.16-.65-.29-.15-.13-.26-.28-.32-.45s-.09-.36-.09-.56c0-.22.03-.42.11-.59.07-.17.18-.31.32-.42s.35-.2.63-.26c.28-.06.63-.09,1.06-.09s.74.03,1.03.09c.28.06.5.15.66.26.16.11.28.25.35.42s.11.37.11.59c0,.2-.04.39-.11.56ZM586.07,284.21c.02-.74.04-1.48.05-2.22,0-.73.01-1.47.01-2.2v-8.19c0-.97-.01-1.89-.03-2.78-.02-.88-.03-1.8-.03-2.74h3.05c-.02.7-.04,1.39-.04,2.05-.01.66-.02,1.34-.03,2.04,0,.69-.01,1.42-.01,2.19v5.23c0,.83,0,1.61.01,2.32,0,.71.02,1.42.03,2.13,0,.7.03,1.43.04,2.17h-3.05Z"/>
      <path class="st0" d="M633.23,284.21c.04-.82.07-1.83.08-3.03,0-1.2.02-2.52.02-3.98v-4.6c0-1.41-.31-2.47-.92-3.2-.61-.72-1.63-1.09-3.06-1.09-.72,0-1.4.11-2.02.32-.62.21-1.17.53-1.63.96-.46.43-.83.98-1.12,1.63-.28.65-.42,1.44-.42,2.37v7.4c0,.61,0,1.18.02,1.69,0,.51.02,1.02.04,1.52h-2.9c.02-.82.04-1.76.06-2.82.02-1.06.04-2.29.04-3.71,0-1.42.02-3.08.02-4.99,0-1.45-.31-2.54-.92-3.27-.61-.73-1.66-1.1-3.15-1.1-.7,0-1.37.11-1.99.32s-1.17.53-1.63.96c-.46.43-.83.98-1.1,1.63s-.41,1.44-.41,2.37v7.4c0,.69,0,1.31.02,1.84,0,.53.01.99.01,1.37h-2.93c.02-1.23.04-2.52.06-3.89.02-1.37.03-2.98.03-4.83,0-2.01-.01-3.75-.03-5.2-.02-1.46-.04-2.86-.06-4.21h3.08c-.02.52-.04,1.02-.06,1.48-.02.46-.05.94-.08,1.42-.03.48-.06,1.05-.08,1.69l-.15-1.36.66.15-.72,1.12c.28-1.07.71-1.95,1.3-2.65.58-.7,1.29-1.23,2.13-1.58.83-.35,1.83-.53,2.97-.53.84,0,1.61.1,2.31.29.69.19,1.28.49,1.75.89s.84.92,1.12,1.54.43,1.35.47,2.17l-.3-1.24.63.12-.69,1.08c.28-1.12.72-2.05,1.33-2.77s1.35-1.25,2.25-1.58c.89-.33,1.9-.5,3.03-.5,1.25,0,2.31.2,3.18.6.87.4,1.55,1.04,2.04,1.92s.72,1.97.72,3.27c0,.52,0,1.07-.01,1.64-.01.57-.02,1.14-.03,1.69,0,.55-.02,1.11-.03,1.66s-.01,1.08-.01,1.58c0,.99,0,2.02.03,3.11.02,1.09.05,2.06.09,2.93h-3.02Z"/>
      <path class="st0" d="M669.79,284.21c-.16,0-.29,0-.39-.03-.1-.02-.19-.06-.26-.14-.07-.07-.12-.17-.14-.29-.02-.12-.03-.28-.03-.48,0-.34,0-.73.01-1.16,0-.43.03-.88.04-1.33.02-.45.04-.86.06-1.22l.24,1.12-.75-.06.6-1.15c-.18,1.11-.59,2.04-1.24,2.79-.64.75-1.49,1.32-2.55,1.69-1.06.37-2.32.56-3.79.56-1.01,0-1.9-.1-2.68-.3s-1.45-.5-1.99-.91c-.54-.4-.95-.91-1.22-1.54-.27-.62-.41-1.39-.41-2.29,0-1.19.28-2.16.83-2.92.55-.76,1.39-1.34,2.5-1.72,1.12-.38,2.53-.57,4.24-.57,1.41,0,2.66.06,3.75.17,1.1.11,1.98.25,2.64.41v1.42c-.86-.16-1.8-.27-2.82-.33-1.02-.06-2.08-.09-3.18-.09-1.17,0-2.13.12-2.88.35s-1.32.59-1.69,1.07-.56,1.11-.56,1.87c0,.68.17,1.27.5,1.75s.83.84,1.49,1.07c.66.23,1.51.35,2.53.35s1.93-.12,2.71-.35c.78-.23,1.44-.58,1.98-1.04.53-.46.93-1.01,1.19-1.64.26-.63.39-1.32.39-2.07,0-.54,0-1.1.03-1.67.02-.57.03-1.13.04-1.67,0-.54.01-1,.01-1.39,0-.68-.1-1.3-.3-1.85-.2-.55-.5-1-.91-1.34s-.93-.6-1.6-.78c-.66-.18-1.47-.27-2.41-.27s-1.75.09-2.4.27-1.18.46-1.58.84-.69.85-.86,1.4c-.17.55-.24,1.21-.2,1.98h-1.85c-.17,0-.35,0-.53.01-.18.01-.34.01-.48.01-.04-1.15.09-2.15.39-3.02.3-.86.78-1.6,1.45-2.2.66-.6,1.5-1.05,2.52-1.34,1.01-.29,2.2-.44,3.54-.44,1.49,0,2.75.15,3.78.45,1.04.3,1.87.73,2.5,1.28.63.55,1.09,1.24,1.37,2.07.28.82.42,1.75.42,2.77,0,.76,0,1.49-.03,2.19-.02.69-.04,1.37-.04,2.04-.01.66-.01,1.38-.01,2.14,0,.56.01,1.12.04,1.66s.05,1.06.08,1.55c.02.49.06.95.12,1.36.06.41.12.74.18.98h-2.44Z"/>
      <path class="st0" d="M706.1,284.21c.02-.99.03-2.03.03-3.12s0-2.31.01-3.63.02-2.79.02-4.4c0-1.07-.17-1.94-.5-2.62-.33-.68-.86-1.21-1.6-1.57-.73-.36-1.67-.54-2.82-.54-.84,0-1.64.11-2.38.33-.74.22-1.4.56-1.98,1.01s-1.02,1.03-1.33,1.72-.47,1.53-.47,2.52v3.33c0,.96,0,1.78.02,2.49,0,.7,0,1.33,0,1.87-.01.54,0,1.02.01,1.43.02.41.03.81.03,1.19h-3.11c.02-.91.04-1.82.05-2.76,0-.93.02-1.96.04-3.09.02-1.13.03-2.43.03-3.92,0-1.11,0-2.18-.02-3.21s-.03-2.03-.04-2.97c-.02-.95-.03-1.86-.03-2.73s0-1.7-.01-2.49c-.01-.78-.02-1.51-.02-2.17h3.11c-.02.97-.04,1.88-.04,2.76-.01.88-.02,1.79-.02,2.73,0,.78,0,1.51-.03,2.19-.02.67-.03,1.47-.03,2.4l-.18-1.45.66.09-.72,1.21c.26-1.11.74-2.04,1.43-2.79.69-.75,1.56-1.31,2.59-1.67,1.04-.36,2.22-.54,3.54-.54,1.45,0,2.67.25,3.68.74,1,.49,1.76,1.23,2.28,2.22s.77,2.17.77,3.56v1.84c0,.52,0,1-.01,1.43-.01.43-.02.85-.02,1.27v1.22c0,1.15,0,2.21.02,3.18,0,.98.04,1.97.08,2.97h-3.05Z"/>
    </g>
    <line class="st2" x1="250.49" y1="248.99" x2="712.99" y2="248.99"/>
  </g>
</svg>